<?xml version="1.0" standalone="no"?>
<!DOCTYPE svg PUBLIC "-//W3C//DTD SVG 20010904//EN"
 "http://www.w3.org/TR/2001/REC-SVG-20010904/DTD/svg10.dtd">
<svg version="1.0" xmlns="http://www.w3.org/2000/svg"
 width="104.000000pt" height="116.000000pt" viewBox="0 0 104.000000 116.000000"
 preserveAspectRatio="xMidYMid meet">
<metadata>
Created by potrace 1.10, written by Peter Selinger 2001-2011
</metadata>
<g transform="translate(0.000000,116.000000) scale(0.100000,-0.100000)"
fill="#fff" stroke="none">
<path d="M485 965 c-17 -7 -88 -53 -160 -102 -97 -67 -131 -96 -133 -113 -2
-14 -10 -33 -18 -44 -10 -15 -14 -55 -14 -149 0 -143 7 -167 62 -207 18 -13
38 -28 43 -32 6 -5 53 -40 106 -78 90 -65 98 -69 145 -67 46 2 61 10 192 106
165 121 162 114 162 293 0 172 -4 178 -211 321 -118 82 -136 89 -174 72z m181
-110 c76 -52 139 -99 139 -104 0 -5 -65 -59 -145 -118 l-144 -109 -152 110
c-84 61 -153 113 -153 116 -1 9 289 200 303 200 7 0 75 -43 152 -95z m-313
-264 l137 -101 0 -151 c0 -83 -3 -149 -7 -147 -5 2 -60 42 -123 89 -63 47
-127 93 -142 103 l-28 18 0 155 c0 123 3 153 13 146 6 -6 74 -56 150 -112z
m455 -204 c-18 -15 -88 -67 -155 -117 l-123 -90 0 154 0 153 153 111 152 111
3 -147 3 -147 -33 -28z"/>
</g>
</svg>
