<?xml version="1.0" standalone="no"?>
<!DOCTYPE svg PUBLIC "-//W3C//DTD SVG 20010904//EN"
 "http://www.w3.org/TR/2001/REC-SVG-20010904/DTD/svg10.dtd">
<svg version="1.0" xmlns="http://www.w3.org/2000/svg"
 width="300.000000pt" height="456.000000pt" viewBox="0 0 300.000000 456.000000"
 preserveAspectRatio="xMidYMid meet">
<metadata>
Created by potrace 1.10, written by Peter Selinger 2001-2011
</metadata>
<g transform="translate(0.000000,456.000000) scale(0.100000,-0.100000)"
fill="#fff" stroke="none">
<path d="M235 4444 c-9 -9 -14 -23 -11 -31 3 -8 6 -29 6 -46 0 -45 18 -21 21
28 2 22 7 43 12 46 5 4 5 9 -1 13 -6 3 -18 -1 -27 -10z"/>
<path d="M278 4399 c-1 -28 0 -53 5 -56 4 -2 7 21 7 51 0 70 -7 73 -12 5z"/>
<path d="M604 4433 c-7 -12 -7 -30 -2 -50 9 -35 23 -49 33 -33 3 5 1 10 -4 10
-6 0 -11 11 -11 25 0 14 6 25 13 25 8 0 9 3 1 8 -6 4 -13 13 -15 20 -3 8 -7 7
-15 -5z"/>
<path d="M796 4434 c-3 -8 -19 -14 -36 -14 -28 0 -30 -2 -30 -40 0 -48 17 -54
22 -7 2 24 8 33 26 35 19 3 22 -1 22 -27 0 -16 5 -33 11 -36 16 -10 24 4 11
17 -16 16 -15 46 1 50 9 2 8 7 -4 20 -15 14 -18 14 -23 2z"/>
<path d="M325 4414 c-34 -34 4 -92 44 -67 15 10 20 10 24 0 3 -9 8 -9 20 2 14
11 20 11 32 1 17 -14 21 0 4 17 -8 8 -8 17 0 32 12 21 -2 31 -14 11 -5 -8 -11
-7 -21 1 -16 13 -19 -2 -3 -18 8 -8 7 -13 -2 -19 -21 -12 -79 -16 -79 -4 0 5
13 10 30 10 24 0 28 3 23 18 -13 34 -34 40 -58 16z"/>
<path d="M530 4412 c0 -11 10 -27 23 -36 l22 -17 -27 6 c-32 6 -38 -10 -8 -20
12 -4 28 -1 37 6 13 12 12 16 -13 37 -27 22 -27 24 -6 19 15 -4 22 -1 19 6 -2
7 -13 13 -25 15 -16 3 -22 -2 -22 -16z"/>
<path d="M665 4420 c-3 -5 1 -10 9 -10 8 0 18 -5 21 -11 4 -6 1 -10 -6 -8 -31
4 -40 -2 -37 -23 2 -18 10 -23 36 -25 32 -1 33 -1 26 35 -8 45 -34 67 -49 42z"/>
<path d="M342 4291 c-138 -5 -175 -9 -182 -21 -15 -23 -12 -370 3 -398 l12
-24 745 1 c410 1 871 -3 1025 -9 319 -13 823 4 847 28 16 16 17 397 1 413 -12
12 -2149 21 -2451 10z m2438 -27 c8 -8 6 -356 -2 -376 -7 -17 -78 -18 -1297
-18 -1265 0 -1290 0 -1301 19 -5 11 -10 27 -10 36 0 15 2 15 22 1 19 -14 62
-16 273 -16 182 0 254 3 263 12 8 8 12 56 12 150 0 126 -2 138 -19 148 -29 15
-523 14 -539 -2 -7 -7 -12 -8 -12 -2 0 6 9 19 21 30 18 17 43 20 203 25 217 7
2378 1 2386 -7z m-2100 -52 c54 -8 55 -10 45 -170 l-7 -112 -261 2 -262 3 -3
130 c-2 113 0 131 15 142 18 14 388 18 473 5z m1533 -369 c-23 -2 -64 -2 -90
0 -26 2 -7 3 42 3 50 0 71 -1 48 -3z"/>
<path d="M2340 4229 c-66 -5 -61 -6 45 -6 115 -1 139 2 65 9 -19 2 -69 0 -110
-3z"/>
<path d="M824 4205 c-14 -22 -15 -43 -9 -150 6 -107 10 -127 25 -135 10 -6 88
-10 172 -10 118 0 159 3 174 14 17 13 19 26 16 148 -2 110 -5 135 -19 146 -12
8 -65 12 -180 12 -162 0 -163 0 -179 -25z m358 -1 c10 -7 10 -245 0 -262 -7
-9 -49 -12 -178 -10 l-169 3 0 135 0 135 60 6 c62 7 273 1 287 -7z"/>
<path d="M1296 4217 c-16 -11 -18 -29 -17 -142 1 -102 4 -132 16 -145 14 -13
55 -15 297 -13 192 2 285 6 294 14 11 9 14 42 14 133 0 66 -4 127 -9 134 -15
25 -85 32 -332 32 -186 0 -249 -3 -263 -13z m571 -19 c9 -7 13 -45 13 -133 0
-103 -3 -124 -16 -129 -9 -3 -134 -6 -279 -6 -228 0 -266 2 -280 16 -13 13
-15 37 -13 138 l3 121 90 5 c147 8 467 0 482 -12z"/>
<path d="M238 3721 c-15 -21 -12 -101 3 -101 8 0 15 58 10 84 -1 5 3 12 10 16
7 5 8 10 1 14 -6 3 -17 -2 -24 -13z"/>
<path d="M283 3675 c0 -33 2 -45 4 -27 2 18 2 45 0 60 -2 15 -4 0 -4 -33z"/>
<path d="M760 3716 c0 -8 -10 -16 -22 -18 -19 -2 -23 -9 -23 -38 0 -32 3 -35
33 -38 l32 -3 0 55 c0 31 -4 56 -10 56 -5 0 -10 -6 -10 -14z m0 -57 c0 -12 -7
-19 -20 -19 -19 0 -28 28 -14 43 11 11 34 -5 34 -24z"/>
<path d="M547 3699 c-10 -6 -17 -22 -17 -39 0 -23 5 -31 26 -36 15 -4 30 -2
37 6 10 10 8 12 -6 6 -11 -3 -24 -3 -30 1 -7 4 -2 9 13 13 14 3 26 13 28 22 4
22 -28 39 -51 27z"/>
<path d="M318 3675 c-8 -19 -8 -28 2 -40 14 -17 60 -21 60 -5 0 5 -10 9 -21 7
-12 -1 -24 4 -27 12 -3 10 2 13 22 9 31 -6 43 7 26 27 -19 23 -49 18 -62 -10z"/>
<path d="M404 3683 c4 -12 2 -31 -4 -43 -7 -14 -8 -20 0 -20 6 0 13 7 17 15 5
14 8 14 24 -1 20 -18 27 -6 7 14 -8 8 -8 15 2 27 16 19 6 32 -13 17 -10 -9
-17 -8 -26 1 -11 10 -12 8 -7 -10z"/>
<path d="M620 3658 c0 -21 5 -38 11 -38 7 0 9 9 5 24 -3 14 0 28 8 35 17 14
26 4 26 -31 0 -15 5 -28 10 -28 12 0 13 50 2 68 -5 6 -20 11 -35 10 -24 -2
-27 -6 -27 -40z"/>
<path d="M253 3570 c-40 -3 -78 -11 -85 -18 -7 -7 -16 -45 -21 -85 -10 -90
-10 -82 -4 -201 4 -79 9 -103 25 -118 18 -19 54 -19 1310 -21 1196 -2 1293 -1
1308 15 14 14 17 44 20 185 2 92 5 179 6 193 6 51 43 50 -1268 52 -671 2
-1251 1 -1291 -2z m2512 -30 c23 -9 24 -12 24 -112 -1 -57 -4 -112 -9 -123 -6
-13 -9 14 -9 76 -1 142 20 133 -319 130 -209 -1 -280 -5 -290 -15 -8 -8 -15
-55 -19 -132 -8 -176 -35 -162 320 -166 279 -3 289 -2 303 17 9 11 13 30 11
43 -2 12 0 22 5 22 8 0 6 -62 -3 -117 -3 -15 -89 -16 -1289 -14 -553 1 -1073
1 -1157 1 l-152 0 -6 33 c-15 83 -7 339 11 357 18 18 2530 19 2579 0z m-23
-58 c9 -9 13 -50 13 -140 l0 -127 -271 -3 c-165 -1 -282 2 -298 8 l-27 10 3
127 c3 126 3 127 28 134 14 4 141 7 282 6 195 -2 260 -5 270 -15z"/>
<path d="M1085 3513 c-11 -3 -23 -8 -26 -11 -4 -4 -10 -63 -14 -132 -10 -182
-29 -170 270 -176 132 -3 254 -1 270 4 l30 9 0 136 c-1 115 -4 140 -18 154
-15 15 -46 17 -254 19 -131 2 -247 0 -258 -3z m505 -33 c6 -12 9 -69 8 -142
l-3 -123 -254 -3 c-179 -2 -258 1 -267 9 -19 15 -20 249 -2 267 9 9 80 12 260
12 237 0 248 -1 258 -20z"/>
<path d="M1783 3513 c-45 -2 -76 -9 -83 -18 -14 -16 -15 -274 -1 -288 5 -5 82
-11 172 -14 196 -6 200 -4 207 80 2 31 1 95 -3 141 -5 67 -10 86 -23 90 -27 8
-191 13 -269 9z m247 -22 l25 -7 0 -134 0 -135 -175 0 -175 0 0 135 0 134 25
7 c14 4 81 7 150 7 69 0 136 -3 150 -7z"/>
<path d="M2398 3443 c23 -2 59 -2 80 0 20 2 1 4 -43 4 -44 0 -61 -2 -37 -4z"/>
<path d="M489 2978 c-5 -61 12 -101 33 -80 9 9 9 12 -1 12 -9 0 -12 9 -8 27 6
30 -1 53 -14 53 -5 0 -9 -6 -10 -12z"/>
<path d="M252 2973 c-7 -2 -17 -14 -23 -25 -13 -24 12 -58 43 -58 26 0 22 18
-4 22 -32 4 -32 43 0 42 12 0 21 4 19 10 -4 12 -18 16 -35 9z"/>
<path d="M309 2946 c-9 -20 -9 -29 1 -41 15 -18 56 -20 66 -4 5 8 -1 10 -19 5
-14 -3 -28 -2 -31 3 -3 5 8 11 25 15 39 8 37 40 -4 44 -21 3 -29 -2 -38 -22z"/>
<path d="M400 2930 c0 -25 4 -39 10 -35 6 3 10 17 10 30 0 12 7 25 15 29 12 4
15 -3 15 -29 0 -19 5 -35 11 -35 6 0 9 16 7 38 -3 34 -6 37 -35 40 -32 3 -33
3 -33 -38z"/>
<path d="M544 2956 c-3 -8 -4 -25 -2 -38 3 -26 43 -38 62 -17 8 9 7 11 -6 6
-20 -7 -48 1 -48 13 0 4 11 5 24 3 27 -5 39 7 30 31 -8 20 -53 21 -60 2z"/>
<path d="M630 2930 c0 -22 5 -40 10 -40 6 0 10 12 10 26 0 15 8 33 18 40 15
12 14 13 -10 14 -26 0 -28 -3 -28 -40z"/>
<path d="M1350 2839 c-102 -6 -396 -7 -655 -4 -522 6 -534 5 -536 -48 -5 -115
4 -367 13 -390 10 -26 15 -28 42 -22 54 12 902 22 1441 17 743 -7 969 -7 1060
4 l79 9 9 45 c5 25 8 52 8 60 -1 8 -4 79 -7 157 -4 100 -10 145 -19 153 -9 7
-155 12 -457 14 -243 2 -522 6 -618 9 -96 3 -258 1 -360 -4z m1390 -24 c20 -4
32 -14 35 -28 11 -50 14 -352 3 -364 -11 -14 -32 -18 -24 -5 2 4 -28 4 -67 0
-40 -4 -617 -7 -1283 -7 l-1211 -1 1 113 c1 61 4 114 8 117 9 7 13 144 4 158
-3 6 1 12 11 14 33 6 2494 9 2523 3z m-2540 -105 c0 -33 -4 -60 -10 -60 -11 0
-14 78 -4 104 11 28 14 18 14 -44z"/>
<path d="M636 2758 c-14 -8 -16 -29 -16 -143 0 -127 1 -135 22 -149 19 -14 65
-16 298 -16 211 0 280 3 294 13 16 12 17 28 14 141 -4 178 21 165 -322 164
-150 0 -281 -5 -290 -10z m582 -21 c6 -7 12 -69 14 -137 l3 -125 -287 -3
c-245 -2 -288 0 -301 13 -13 12 -15 35 -10 128 2 61 6 118 9 125 5 18 557 18
572 -1z"/>
<path d="M1327 2752 c-14 -15 -17 -41 -17 -138 0 -169 -13 -159 205 -159 145
0 178 3 186 15 13 19 1 270 -13 288 -8 9 -56 12 -178 12 -149 0 -169 -2 -183
-18z m351 -7 c15 -5 17 -260 2 -270 -6 -4 -80 -7 -165 -7 -112 -1 -158 2 -170
12 -12 10 -15 37 -15 137 0 116 1 124 21 131 20 8 302 5 327 -3z"/>
<path d="M1784 2758 c-4 -6 -7 -73 -5 -147 1 -113 5 -138 18 -148 23 -18 514
-18 531 -1 8 8 12 52 12 131 0 113 -8 152 -34 169 -20 13 -514 9 -522 -4z
m530 -24 c3 -9 6 -71 6 -139 l0 -123 -66 -7 c-80 -9 -435 -2 -452 9 -13 8 -18
257 -5 269 3 4 120 7 259 7 220 0 253 -2 258 -16z"/>
<path d="M2398 2763 c23 -2 59 -2 80 0 20 2 1 4 -43 4 -44 0 -61 -2 -37 -4z"/>
<path d="M703 2208 c4 -47 6 -52 31 -55 20 -3 28 2 35 19 11 29 -4 58 -29 58
-11 0 -20 7 -20 15 0 8 -5 15 -10 15 -6 0 -9 -21 -7 -52z m57 -18 c0 -13 -7
-20 -20 -20 -13 0 -20 7 -20 20 0 13 7 20 20 20 13 0 20 -7 20 -20z"/>
<path d="M890 2235 c-5 -59 9 -100 27 -80 5 4 2 10 -4 12 -7 3 -13 11 -13 19
0 8 6 14 13 14 9 0 9 2 1 8 -7 4 -14 18 -17 32 -4 23 -4 23 -7 -5z"/>
<path d="M236 2228 c-19 -10 -18 -12 9 -34 16 -13 26 -26 22 -30 -3 -4 -13 -1
-22 6 -17 14 -31 8 -20 -9 8 -13 52 -14 59 -2 10 15 -4 39 -27 46 l-22 8 23 4
c12 2 20 9 17 14 -8 12 -15 11 -39 -3z"/>
<path d="M496 2227 c-12 -9 -17 -23 -14 -42 2 -24 8 -30 27 -30 13 0 26 5 28
12 3 7 -3 10 -15 6 -11 -2 -23 0 -27 7 -9 15 15 42 32 35 9 -3 13 0 11 7 -6
18 -22 20 -42 5z"/>
<path d="M314 2223 c-13 -9 -15 -103 -2 -103 4 0 8 7 8 15 0 8 8 15 19 15 46
0 57 73 11 78 -14 1 -30 -1 -36 -5z m44 -39 c-4 -25 -32 -24 -36 0 -4 21 18
40 31 27 5 -5 7 -17 5 -27z"/>
<path d="M400 2220 c0 -5 6 -7 14 -4 8 3 17 1 21 -5 3 -7 -2 -11 -14 -11 -10
0 -21 -6 -24 -12 -8 -24 5 -38 34 -38 24 0 29 4 29 24 0 40 -11 56 -36 56 -13
0 -24 -4 -24 -10z"/>
<path d="M564 2216 c-11 -30 0 -61 25 -64 13 -2 28 1 34 7 8 8 3 11 -16 11
-15 0 -27 5 -27 10 0 6 12 10 26 10 19 0 25 5 22 18 -4 22 -56 29 -64 8z"/>
<path d="M798 2205 c-8 -19 -8 -28 2 -40 14 -17 60 -21 60 -5 0 5 -10 9 -21 7
-12 -1 -24 4 -26 11 -3 8 6 12 27 12 28 0 30 2 20 20 -15 28 -48 25 -62 -5z"/>
<path d="M930 2218 c0 -28 19 -70 30 -63 5 3 10 15 10 26 0 28 18 24 26 -6 3
-14 10 -25 14 -25 8 0 11 8 26 63 3 9 1 17 -5 17 -6 0 -11 -9 -11 -20 0 -11
-4 -20 -9 -20 -5 0 -13 9 -16 20 -8 26 -22 25 -31 -2 l-6 -21 -14 24 c-10 18
-13 19 -14 7z"/>
<path d="M1055 2210 c-9 -29 12 -60 40 -60 14 0 25 4 25 8 0 5 -10 8 -21 8
-32 -1 -34 19 -2 22 34 3 39 8 23 27 -18 22 -57 19 -65 -5z"/>
<path d="M1152 2218 c-15 -15 -15 -41 0 -56 15 -15 58 -16 58 -1 0 6 -8 8 -19
4 -11 -3 -22 -1 -26 5 -4 6 6 13 24 16 17 4 31 10 31 13 0 13 -24 31 -40 31
-9 0 -21 -5 -28 -12z"/>
<path d="M1235 2222 c-9 -9 -5 -72 4 -72 5 0 11 12 13 27 2 17 10 29 21 31 14
3 17 -1 11 -22 -6 -26 2 -50 15 -42 4 3 5 22 2 43 -5 33 -10 38 -33 39 -15 1
-30 -1 -33 -4z"/>
<path d="M190 2077 c-25 -12 -25 -15 -31 -162 -3 -83 -10 -162 -14 -177 -6
-23 -2 -33 28 -63 23 -23 45 -35 64 -36 15 0 437 -1 938 0 888 0 1547 7 1593
17 34 7 68 87 53 121 -11 23 -14 89 -12 214 1 32 -5 54 -18 70 l-19 24 -1279
2 c-1016 2 -1283 0 -1303 -10z m2576 -28 c17 -19 19 -41 22 -188 3 -149 2
-169 -14 -182 -15 -12 -198 -14 -1277 -17 -948 -2 -1267 0 -1289 9 l-28 11 0
179 c0 99 0 182 -1 187 0 4 10 10 23 14 13 3 590 6 1284 7 l1261 1 19 -21z"/>
<path d="M1138 2033 c18 -2 45 -2 60 0 15 2 0 4 -33 4 -33 0 -45 -2 -27 -4z"/>
<path d="M206 2014 c-23 -23 -23 -265 0 -288 13 -14 52 -16 273 -16 186 0 260
3 269 12 8 8 12 56 12 150 0 126 -2 138 -19 148 -12 6 -116 10 -270 10 -214 0
-252 -2 -265 -16z m536 -10 c11 -7 3 -262 -8 -274 -9 -8 -508 0 -517 9 -4 4
-6 66 -5 137 l3 129 65 7 c77 7 447 1 462 -8z"/>
<path d="M1298 2019 c-16 -9 -18 -27 -18 -149 0 -127 2 -140 19 -150 29 -15
344 -13 359 2 8 8 12 55 12 144 0 172 10 164 -200 164 -86 0 -163 -5 -172 -11z
m345 -16 c3 -5 8 -62 12 -129 10 -165 18 -158 -186 -151 -87 3 -162 8 -168 12
-12 7 -16 231 -5 259 5 14 30 16 174 16 93 0 171 -3 173 -7z"/>
<path d="M1978 2023 c18 -2 45 -2 60 0 15 2 0 4 -33 4 -33 0 -45 -2 -27 -4z"/>
<path d="M2173 2015 c-22 -15 -23 -23 -23 -145 0 -176 -25 -164 318 -158 147
3 275 8 285 13 15 6 17 23 17 135 0 178 25 164 -309 168 -231 3 -269 1 -288
-13z m565 -14 c19 -12 30 -235 12 -256 -11 -13 -53 -15 -291 -15 l-279 0 -10
26 c-11 28 -13 195 -4 232 l6 22 277 0 c152 0 282 -4 289 -9z"/>
<path d="M1170 1465 c0 -8 -8 -15 -19 -15 -52 0 -53 -75 -1 -82 l30 -5 0 59
c0 32 -2 58 -5 58 -3 0 -5 -7 -5 -15z m0 -55 c0 -24 -25 -33 -40 -14 -10 11
-10 17 0 28 15 19 40 10 40 -14z"/>
<path d="M230 1431 c0 -11 9 -23 20 -26 31 -10 24 -28 -7 -20 -21 5 -25 4 -17
-5 14 -14 56 -9 62 7 2 7 -8 18 -22 24 -26 12 -27 33 -1 22 8 -3 15 0 15 6 0
6 -11 11 -25 11 -18 0 -25 -5 -25 -19z"/>
<path d="M304 1393 c3 -51 16 -89 16 -45 0 15 7 22 28 24 19 2 28 9 30 26 5
32 -14 51 -48 50 -29 -1 -29 -2 -26 -55z m59 24 c8 -20 -9 -41 -27 -34 -23 9
-21 47 3 47 10 0 21 -6 24 -13z"/>
<path d="M400 1441 c0 -6 12 -11 28 -12 l27 -1 -25 -7 c-36 -10 -34 -45 3 -49
27 -3 28 -2 25 35 -3 33 -7 38 -30 41 -16 2 -28 -1 -28 -7z"/>
<path d="M490 1436 c-6 -8 -10 -25 -8 -38 2 -18 10 -24 36 -26 20 -2 32 1 32
9 0 6 -8 9 -20 6 -26 -7 -47 18 -30 37 6 8 18 12 26 9 8 -3 14 0 14 6 0 16
-35 14 -50 -3z"/>
<path d="M570 1435 c-7 -8 -10 -25 -6 -40 5 -20 13 -25 36 -25 16 0 32 5 35
10 4 7 -2 9 -18 5 -14 -4 -28 -2 -31 4 -5 7 2 11 18 11 32 0 40 14 20 34 -19
20 -38 20 -54 1z"/>
<path d="M710 1440 c0 -6 7 -10 16 -8 10 2 19 -2 21 -8 2 -6 -7 -10 -19 -10
-14 1 -24 -6 -26 -18 -5 -23 12 -34 44 -28 26 5 32 29 14 63 -11 20 -50 27
-50 9z"/>
<path d="M803 1443 c-7 -2 -13 -20 -13 -39 0 -23 4 -33 11 -28 6 3 8 15 6 26
-3 11 0 21 9 25 8 3 14 9 14 14 0 10 -8 10 -27 2z"/>
<path d="M854 1442 c-33 -21 -17 -72 22 -72 17 0 28 8 36 26 11 22 10 28 -7
40 -21 16 -35 17 -51 6z m46 -31 c0 -20 -25 -35 -41 -25 -5 3 -9 14 -9 25 0
14 7 19 25 19 18 0 25 -5 25 -19z"/>
<path d="M930 1427 c0 -31 24 -62 42 -54 9 3 21 0 27 -6 8 -8 11 1 11 36 0 26
-4 47 -10 47 -5 0 -10 -11 -10 -24 0 -25 -22 -51 -33 -39 -4 3 -7 19 -7 35 0
15 -4 28 -10 28 -5 0 -10 -10 -10 -23z"/>
<path d="M1027 1416 c-3 -17 -1 -35 4 -40 5 -6 9 3 9 22 0 26 4 32 21 32 18 0
21 -5 17 -30 -3 -16 -1 -30 4 -30 5 0 8 17 6 38 -3 32 -6 37 -30 38 -22 1 -27
-4 -31 -30z"/>
<path d="M428 1300 c-168 -3 -251 -9 -259 -17 -7 -7 -12 -69 -13 -185 -2 -186
5 -220 46 -234 31 -11 2525 -6 2563 4 36 10 45 43 40 152 -2 41 -4 114 -4 162
-1 79 -3 89 -23 102 -20 12 -176 15 -1063 18 -572 2 -1151 1 -1287 -2z m2202
-20 l-125 -6 124 -2 c130 -2 148 -9 59 -22 l-53 -8 62 -1 c41 -1 63 3 66 12
11 30 16 -9 22 -168 7 -158 6 -171 -11 -186 -17 -15 -129 -17 -1292 -21 -700
-2 -1274 -2 -1277 0 -3 3 0 11 6 18 6 7 9 28 6 46 -4 33 -4 33 -5 -5 -1 -26
-6 -37 -14 -35 -10 4 -14 50 -16 175 -2 154 -1 171 16 186 17 15 81 17 713 19
1129 5 1853 3 1719 -2z"/>
<path d="M353 1232 c-18 -12 -23 -276 -5 -294 18 -18 517 -25 538 -7 19 15 20
279 2 297 -14 14 -514 17 -535 4z m502 -11 l30 -6 0 -135 0 -135 -254 -3
c-179 -2 -258 1 -267 9 -11 9 -14 42 -14 135 0 107 2 124 18 133 19 11 436 13
487 2z"/>
<path d="M1272 1228 c-8 -8 -12 -56 -12 -150 0 -126 2 -138 19 -148 11 -6 89
-10 180 -10 200 0 191 -8 191 167 0 97 -3 125 -16 137 -13 13 -44 16 -183 16
-116 0 -171 -4 -179 -12z m348 -14 c7 -7 10 -62 8 -140 l-3 -129 -175 0 -175
0 -3 130 c-2 115 -1 131 15 143 22 16 317 12 333 -4z"/>
<path d="M1748 1233 c34 -2 90 -2 125 0 34 2 6 3 -63 3 -69 0 -97 -1 -62 -3z"/>
<path d="M2010 1230 c-12 -7 -15 -35 -15 -139 0 -112 3 -133 18 -148 16 -17
40 -18 300 -15 251 2 283 4 295 19 8 11 12 55 12 129 0 95 -3 115 -19 135
l-19 24 -279 3 c-168 1 -284 -2 -293 -8z m578 -22 c17 -17 17 -239 0 -256 -18
-18 -537 -17 -561 1 -15 10 -18 31 -19 127 -1 64 2 121 6 128 10 17 557 17
574 0z"/>
<path d="M1050 661 c0 -28 5 -53 10 -56 6 -4 10 15 10 49 0 31 -4 56 -10 56
-5 0 -10 -22 -10 -49z"/>
<path d="M231 677 c-9 -12 -6 -19 16 -37 l28 -21 -28 4 c-18 3 -26 0 -24 -7 5
-16 36 -20 53 -5 16 13 2 39 -22 39 -8 0 -14 5 -14 11 0 7 9 9 21 6 13 -3 19
-1 16 6 -6 18 -32 20 -46 4z"/>
<path d="M318 683 c-14 -4 -18 -15 -18 -54 0 -27 5 -49 10 -49 6 0 10 7 10 15
0 8 6 12 14 9 17 -7 48 24 44 44 -4 20 -39 40 -60 35z m40 -41 c3 -19 -1 -23
-15 -20 -10 2 -19 14 -21 26 -3 19 1 23 15 20 10 -2 19 -14 21 -26z"/>
<path d="M410 680 c-12 -8 -11 -10 7 -10 12 0 25 -4 28 -10 4 -6 -5 -10 -19
-10 -19 0 -26 -5 -26 -20 0 -11 3 -20 8 -21 53 -6 52 -6 52 26 0 28 -15 55
-29 55 -4 0 -13 -5 -21 -10z"/>
<path d="M498 679 c-40 -23 -6 -89 36 -73 26 10 18 23 -11 21 -22 -2 -28 2
-28 18 0 14 8 21 28 23 15 2 25 8 22 13 -8 12 -25 11 -47 -2z"/>
<path d="M576 674 c-19 -18 -21 -45 -4 -62 15 -15 54 -16 63 -2 4 6 -7 10 -24
10 -17 0 -31 5 -31 10 0 6 14 10 30 10 34 0 38 10 12 33 -23 21 -27 21 -46 1z"/>
<path d="M716 675 c-9 -9 -16 -25 -16 -35 0 -23 32 -42 54 -34 25 10 18 22 -9
16 -15 -2 -25 0 -25 7 0 6 14 11 31 11 34 0 35 15 2 37 -18 12 -23 12 -37 -2z"/>
<path d="M838 660 l-15 -35 -13 28 c-20 42 -30 32 -13 -13 9 -22 20 -40 24
-40 11 0 41 70 36 84 -3 6 -11 -5 -19 -24z"/>
<path d="M887 672 c-21 -23 -22 -46 -2 -62 16 -14 47 -10 52 6 2 7 -5 10 -20
7 -14 -3 -28 0 -31 6 -5 7 5 11 28 11 40 0 45 9 18 33 -23 21 -25 21 -45 -1z"/>
<path d="M1080 682 c0 -7 7 -27 16 -44 15 -29 15 -32 0 -43 -20 -15 -21 -25
-1 -25 9 0 26 24 40 56 29 66 30 71 10 54 -8 -7 -15 -19 -15 -26 0 -8 -4 -14
-10 -14 -5 0 -10 4 -10 8 0 14 -29 48 -30 34z"/>
<path d="M972 635 c1 -37 2 -37 5 -7 2 17 8 32 14 32 5 0 12 0 17 0 4 1 10
-14 13 -32 6 -32 6 -31 8 10 1 41 0 42 -29 40 -28 -2 -30 -5 -28 -43z"/>
<path d="M203 532 c-35 -5 -46 -28 -48 -100 -2 -37 -8 -80 -14 -96 -9 -23 -9
-33 4 -53 13 -19 15 -37 10 -78 -7 -51 -5 -56 22 -83 l29 -30 297 -7 c164 -4
311 -5 329 -1 17 3 302 7 632 7 331 1 763 4 961 8 l360 6 14 30 c18 37 25 193
9 212 -5 7 -8 23 -4 35 3 13 0 49 -6 82 -10 48 -17 60 -38 68 -23 9 -2499 9
-2557 0z m2337 -13 c-25 -5 -225 -9 -445 -10 -220 -1 -409 -5 -420 -9 -11 -5
169 -8 400 -8 231 0 439 -3 463 -7 37 -7 42 -6 36 9 -5 14 2 16 49 16 31 0 58
4 62 10 3 6 15 6 29 0 13 -5 27 -6 32 -2 4 4 4 2 0 -5 -3 -7 2 -14 13 -18 22
-7 26 -39 30 -231 2 -103 -1 -123 -15 -135 -14 -12 -213 -14 -1298 -15 -705
-1 -1273 0 -1264 3 19 5 26 53 8 53 -6 0 -10 -8 -8 -17 2 -10 -5 -19 -15 -21
-17 -4 -18 7 -16 185 1 129 6 190 13 191 6 1 499 4 1096 8 597 3 1087 8 1089
10 2 2 50 3 105 3 87 -1 95 -3 56 -10z"/>
<path d="M1128 483 c23 -2 59 -2 80 0 20 2 1 4 -43 4 -44 0 -61 -2 -37 -4z"/>
<path d="M2625 479 c4 -5 27 -9 52 -9 58 0 52 8 -10 14 -28 3 -45 1 -42 -5z"/>
<path d="M472 464 c-21 -14 -22 -22 -22 -144 0 -122 1 -130 22 -144 19 -14 63
-16 280 -16 250 0 258 1 268 21 11 19 6 217 -6 261 -9 31 -62 38 -293 38 -189
0 -230 -3 -249 -16z m518 -14 c12 -7 16 -37 18 -139 l4 -130 -28 -7 c-30 -8
-492 4 -506 12 -10 6 -11 258 -1 267 10 11 496 8 513 -3z"/>
<path d="M1360 474 c-95 -6 -99 -14 -93 -166 3 -71 10 -128 17 -135 16 -17
342 -21 359 -4 8 8 13 54 15 134 5 165 3 166 -133 171 -55 2 -129 2 -165 0z
m261 -24 c17 -10 19 -22 19 -133 0 -82 -4 -127 -12 -135 -17 -17 -319 -17
-336 0 -8 8 -12 53 -12 135 0 106 2 123 18 132 23 14 298 14 323 1z"/>
<path d="M1975 473 c-31 -2 -55 -10 -62 -20 -9 -11 -13 -55 -13 -133 0 -174
-28 -160 319 -160 210 0 290 3 299 12 8 8 12 53 12 138 0 176 19 165 -274 166
-127 1 -253 -1 -281 -3z m523 -25 c5 -7 13 -65 17 -129 5 -94 4 -119 -7 -130
-20 -19 -561 -20 -580 -1 -8 8 -12 53 -13 133 0 96 3 122 15 129 24 15 555 13
568 -2z"/>
<path d="M2400 130 c-25 -5 -12 -7 50 -8 58 0 76 3 55 8 -37 9 -60 9 -105 0z"/>
</g>
</svg>
