<?xml version="1.0" standalone="no"?>
<!DOCTYPE svg PUBLIC "-//W3C//DTD SVG 20010904//EN"
 "http://www.w3.org/TR/2001/REC-SVG-20010904/DTD/svg10.dtd">
<svg version="1.0" xmlns="http://www.w3.org/2000/svg"
 width="300.000000pt" height="398.000000pt" viewBox="0 0 300.000000 398.000000"
 preserveAspectRatio="xMidYMid meet">
<metadata>
Created by potrace 1.10, written by Peter Selinger 2001-2011
</metadata>
<g transform="translate(0.000000,398.000000) scale(0.100000,-0.100000)"
fill="#fff" stroke="none">
<path d="M40 3921 c-7 -14 -11 -636 -12 -1940 -3 -1764 -2 -1922 13 -1937 15
-15 140 -16 1469 -16 1233 -1 1454 1 1466 13 20 20 26 3841 6 3877 l-13 22
-1459 0 c-1434 0 -1459 0 -1470 -19z m2922 -1941 l-2 -1930 -125 0 -125 0 0
35 c0 28 -4 35 -19 35 -20 0 -31 -17 -24 -37 3 -7 11 -13 19 -13 8 0 14 -4 14
-10 0 -6 -87 -10 -240 -10 l-240 0 1 23 c0 12 3 16 6 10 2 -7 13 -13 24 -13
14 0 19 7 18 28 l0 27 -11 -25 c-11 -25 -11 -25 -15 -2 -4 18 -11 22 -39 22
-28 0 -34 -4 -34 -21 0 -12 8 -23 20 -26 62 -16 -8 -23 -245 -23 l-265 0 0 36
c0 31 -3 35 -22 32 -28 -4 -33 -44 -5 -42 9 1 17 -4 17 -12 0 -12 -43 -14
-245 -14 l-245 0 0 36 c0 31 -3 35 -22 32 -26 -3 -32 -38 -8 -46 12 -4 13 -3
3 10 -7 8 -10 18 -6 21 14 15 23 6 23 -23 l0 -30 -560 0 -560 0 0 1930 0 1930
1458 0 1457 0 -3 -1930z m-1301 -1883 c-1 -12 -15 -9 -19 4 -3 6 1 10 8 8 6
-3 11 -8 11 -12z m541 -2 c0 -5 -5 -11 -11 -13 -6 -2 -11 4 -11 13 0 9 5 15
11 13 6 -2 11 -8 11 -13z m498 0 c0 -8 -4 -15 -10 -15 -5 0 -10 7 -10 15 0 8
5 15 10 15 6 0 10 -7 10 -15z"/>
<path d="M862 3861 c2 -7 7 -12 11 -12 12 1 9 15 -3 20 -7 2 -11 -2 -8 -8z"/>
<path d="M1180 3860 c0 -5 5 -10 10 -10 6 0 10 5 10 10 0 6 -4 10 -10 10 -5 0
-10 -4 -10 -10z"/>
<path d="M1231 3848 c-10 -29 -2 -118 11 -118 5 0 8 19 6 42 -2 33 1 44 13 46
23 4 54 -80 40 -107 -14 -25 -14 -31 -1 -31 6 0 14 10 19 23 5 12 19 46 30 75
14 34 17 52 9 50 -6 -2 -17 -20 -24 -39 l-12 -34 -11 28 c-6 16 -11 33 -11 38
0 5 -14 9 -32 9 -30 0 -31 0 -13 20 16 18 17 20 1 20 -9 0 -20 -10 -25 -22z"/>
<path d="M1120 3846 c0 -8 -6 -17 -12 -19 -10 -4 -10 -6 0 -6 7 -1 12 -16 12
-41 0 -39 21 -64 38 -45 4 4 1 10 -5 12 -7 3 -13 20 -13 39 0 20 4 33 9 29 5
-3 12 -1 16 5 3 5 -1 10 -9 10 -9 0 -16 7 -16 15 0 8 -4 15 -10 15 -5 0 -10
-6 -10 -14z"/>
<path d="M1822 3843 c-7 -12 -8 -24 -3 -27 4 -3 6 -17 3 -31 -2 -14 1 -32 8
-40 14 -17 40 -20 40 -5 0 6 -7 10 -15 10 -10 0 -15 11 -15 35 0 26 3 33 15
29 8 -4 15 -1 15 5 0 6 -6 11 -14 11 -8 0 -16 8 -18 18 -3 15 -5 14 -16 -5z"/>
<path d="M2120 3846 c0 -9 -5 -16 -11 -16 -8 0 -8 -4 -1 -13 6 -6 12 -28 14
-47 2 -24 9 -36 21 -38 9 -2 17 1 17 7 0 6 -7 11 -16 11 -11 0 -14 8 -12 33 2
19 8 31 16 30 6 -2 12 2 12 7 0 6 -7 10 -16 10 -8 0 -13 4 -9 9 3 5 1 12 -5
16 -5 3 -10 -1 -10 -9z"/>
<path d="M860 3766 c0 -42 -4 -66 -12 -69 -7 -2 -10 -7 -7 -11 3 -3 14 -4 23
0 13 5 16 20 16 75 0 39 -4 69 -10 69 -6 0 -10 -28 -10 -64z"/>
<path d="M910 3791 c0 -46 14 -60 58 -59 32 1 32 2 32 50 0 56 -17 65 -22 11
-3 -33 -6 -38 -28 -38 -22 0 -25 4 -24 38 1 20 -3 37 -7 37 -5 0 -9 -17 -9
-39z"/>
<path d="M1023 3814 c-7 -18 20 -44 44 -44 7 0 13 -4 13 -9 0 -14 -27 -20 -39
-8 -6 6 -14 8 -18 4 -12 -12 14 -29 38 -25 35 5 39 45 5 54 -14 3 -26 12 -26
20 0 17 12 18 28 2 13 -13 27 -5 17 11 -10 17 -55 13 -62 -5z"/>
<path d="M1180 3780 c0 -27 5 -50 10 -50 6 0 10 23 10 50 0 28 -4 50 -10 50
-5 0 -10 -22 -10 -50z"/>
<path d="M1492 3818 c-7 -7 -12 -24 -12 -38 0 -31 17 -50 45 -50 22 0 45 17
45 34 0 6 -5 5 -12 -2 -7 -7 -22 -12 -35 -12 -19 0 -23 5 -23 29 0 32 24 48
47 30 7 -7 17 -9 20 -5 10 10 -17 26 -42 26 -12 0 -26 -5 -33 -12z"/>
<path d="M1596 3809 c-23 -33 0 -79 40 -79 44 0 66 68 30 92 -21 14 -55 8 -70
-13z m67 -11 c15 -23 1 -48 -28 -48 -14 0 -25 2 -25 4 0 2 -3 11 -6 19 -6 16
23 50 39 44 6 -2 15 -10 20 -19z"/>
<path d="M1705 3778 c0 -30 4 -48 12 -48 8 0 10 11 6 33 -6 37 14 61 41 51 11
-4 16 -18 16 -45 0 -21 5 -39 10 -39 15 0 12 76 -3 89 -8 6 -29 10 -48 9 -34
-1 -34 -1 -34 -50z"/>
<path d="M1892 3818 c-32 -32 0 -91 46 -86 38 5 39 26 1 25 -17 -1 -34 3 -36
9 -2 6 10 9 31 6 39 -5 52 9 36 38 -12 23 -59 27 -78 8z m52 -4 c26 -10 18
-24 -14 -24 -30 0 -41 14 -17 23 6 3 13 6 14 6 1 1 8 -2 17 -5z"/>
<path d="M2000 3780 c0 -27 5 -50 10 -50 6 0 10 18 10 39 0 43 9 55 34 45 11
-4 16 -19 16 -45 0 -21 5 -39 10 -39 13 0 13 56 0 81 -8 13 -21 19 -45 19
l-35 0 0 -50z"/>
<path d="M1380 3800 c0 -5 18 -10 41 -10 24 0 38 4 34 10 -3 6 -22 10 -41 10
-19 0 -34 -4 -34 -10z"/>
<path d="M940 3340 l0 -220 975 0 975 0 0 220 0 220 -975 0 -975 0 0 -220z
m1930 3 l0 -208 -960 0 -960 0 0 208 0 207 960 0 960 0 0 -207z"/>
<path d="M1007 3493 c-4 -3 -7 -16 -7 -28 0 -11 -5 -26 -11 -32 -15 -15 -20
-63 -8 -63 5 0 14 -10 18 -22 8 -21 10 -21 16 -5 5 12 2 22 -11 31 -17 13 -17
15 3 61 14 33 22 42 26 31 8 -21 56 -21 64 0 4 11 11 4 24 -26 18 -39 17 -70
-3 -70 -5 0 -7 -13 -3 -30 4 -19 3 -30 -4 -30 -7 0 -11 -23 -11 -57 0 -67 -17
-62 -23 7 -3 45 -4 45 -5 -9 -1 -30 -5 -51 -9 -47 -4 4 -6 28 -6 54 l2 47 -11
-55 -12 -55 -8 55 c-14 90 -38 96 -46 10 -4 -47 -3 -50 24 -61 65 -26 133 -9
184 46 21 23 25 36 25 91 0 70 -10 84 -49 77 -20 -4 -25 1 -35 41 -11 46 -27
59 -37 31 -4 -8 -16 -15 -29 -15 -13 0 -25 7 -29 15 -6 16 -18 19 -29 8z m173
-174 c0 -14 -6 -34 -14 -44 -13 -18 -15 -17 -26 23 -9 34 -8 50 2 73 l13 30
12 -28 c7 -15 12 -40 13 -54z m20 62 c5 -11 10 -32 10 -48 0 -33 -31 -95 -50
-101 -8 -3 -4 8 8 26 24 32 28 75 12 116 -11 31 4 36 20 7z m-187 -170 c-2 -3
-8 0 -14 6 -7 7 -8 26 -3 55 l8 43 7 -50 c3 -27 4 -52 2 -54z m118 6 c-17 -17
-22 -3 -14 44 l7 44 9 -38 c6 -27 6 -42 -2 -50z"/>
<path d="M1287 3493 c-2 -5 -7 -36 -11 -69 -5 -50 -4 -65 9 -78 9 -9 20 -16
24 -16 5 0 12 -33 17 -72 9 -73 9 -73 42 -76 21 -2 32 1 32 9 0 10 3 10 12 1
7 -7 26 -12 43 -12 26 0 37 8 64 46 24 35 31 53 26 72 -5 21 -4 24 8 14 11
-10 17 -9 26 2 9 11 8 18 -5 30 -21 22 -56 17 -69 -10 -10 -20 -12 -21 -30 -5
-16 13 -20 28 -19 81 1 71 -9 94 -35 81 -23 -12 -90 -12 -112 -1 -10 6 -20 7
-22 3z m18 -33 c-2 -11 0 -20 6 -20 5 0 9 8 9 18 1 16 2 16 14 -1 14 -18 14
-18 19 0 3 11 5 8 6 -11 1 -24 3 -27 16 -16 8 7 15 18 15 26 0 14 38 30 47 20
4 -3 -1 -6 -10 -6 -19 0 -23 -15 -5 -26 7 -5 8 -3 3 6 -5 8 -4 11 3 6 6 -3 11
-14 11 -24 -1 -9 2 -26 6 -37 9 -31 -16 -56 -63 -62 -29 -4 -49 -1 -66 11 -22
14 -25 22 -24 76 0 33 4 60 9 60 4 0 6 -9 4 -20z m72 -12 c-3 -8 -6 -5 -6 6
-1 11 2 17 5 13 3 -3 4 -12 1 -19z m193 -118 c0 -5 -10 -6 -21 -3 -19 5 -21 3
-17 -20 3 -14 2 -31 -2 -37 -4 -7 -10 3 -14 22 -5 24 -2 36 10 45 16 12 44 7
44 -7z m-76 -54 c20 -39 4 -76 -33 -76 -33 0 -41 39 -10 47 17 5 28 23 13 23
-18 0 -44 -24 -44 -40 0 -11 -5 -20 -11 -20 -7 0 -8 11 -4 31 5 22 4 29 -4 25
-6 -4 -11 -20 -11 -37 0 -36 -15 -39 -18 -2 -3 40 -12 41 -12 2 0 -26 -3 -30
-10 -19 -5 8 -10 35 -10 60 l0 45 38 1 c20 1 41 -4 45 -10 6 -7 7 -5 4 6 -3 9
-1 18 6 21 15 5 42 -20 61 -57z"/>
<path d="M1315 3401 c3 -5 1 -12 -5 -16 -6 -4 -8 -11 -5 -16 11 -17 23 -9 23
16 0 14 -5 25 -10 25 -5 0 -7 -4 -3 -9z"/>
<path d="M1400 3399 c0 -5 5 -7 10 -4 6 3 10 8 10 11 0 2 -4 4 -10 4 -5 0 -10
-5 -10 -11z"/>
<path d="M1360 3385 c-10 -12 -10 -15 4 -15 9 0 16 7 16 15 0 8 -2 15 -4 15
-2 0 -9 -7 -16 -15z"/>
<path d="M1400 3370 c0 -5 7 -10 15 -10 8 0 15 5 15 10 0 6 -7 10 -15 10 -8 0
-15 -4 -15 -10z"/>
<path d="M1676 3439 c3 -35 10 -68 15 -73 14 -15 11 -42 -6 -56 -13 -10 -15
-9 -15 8 0 27 -13 35 -33 19 -29 -23 -30 -55 -2 -83 24 -24 25 -28 11 -43 -9
-10 -13 -21 -9 -24 10 -11 273 -8 273 2 0 5 -7 17 -16 25 -9 10 -13 24 -9 36
7 22 -10 60 -27 60 -7 0 -6 -5 2 -15 8 -9 10 -29 7 -49 -4 -27 -2 -36 11 -39
9 -3 4 -5 -11 -6 l-28 -1 2 62 c3 76 9 108 19 108 11 0 7 -34 -5 -42 -5 -4 3
-8 19 -8 24 0 27 2 16 15 -10 12 -10 18 0 30 10 13 9 15 -10 15 -21 0 -22 2
-15 61 l7 62 -28 -9 c-35 -10 -108 -10 -147 1 l-28 8 7 -64z m44 37 c0 -2 -7
-9 -15 -16 -12 -10 -15 -10 -15 4 0 9 7 16 15 16 8 0 15 -2 15 -4z m140 -12
c0 -17 -22 -14 -28 4 -2 7 3 12 12 12 9 0 16 -7 16 -16z m-27 -12 c36 -40 -1
-112 -58 -112 -40 0 -81 30 -72 53 8 22 41 22 58 0 13 -15 12 -16 -8 -11 -27
7 -29 0 -5 -18 21 -17 36 -18 26 -2 -4 6 -3 8 3 5 6 -4 19 0 29 9 18 14 18 15
-6 8 -22 -6 -23 -5 -11 10 7 9 22 16 33 16 18 0 19 1 2 17 -13 13 -19 14 -22
5 -5 -15 -48 -16 -58 -1 -4 8 -9 8 -17 0 -6 -6 -18 -11 -26 -11 -10 0 -8 7 9
25 29 31 98 35 123 7z m-5 -147 c2 -16 0 -47 -3 -67 -8 -48 -34 -52 -31 -5 1
26 -3 33 -21 35 -20 3 -23 -1 -23 -32 0 -25 -4 -36 -15 -36 -11 0 -15 11 -15
38 0 20 -3 48 -7 62 -6 24 -5 24 13 9 32 -27 52 -29 76 -9 13 11 18 19 11 20
-6 0 -15 -4 -18 -10 -9 -15 -30 -12 -54 8 -21 17 -21 17 32 17 52 0 53 -1 55
-30z m-170 -10 c1 -34 -10 -46 -23 -24 -8 13 2 59 14 59 4 0 8 -16 9 -35z m42
-29 c0 -19 3 -41 6 -50 5 -12 0 -16 -22 -16 -19 0 -25 3 -16 9 9 5 11 17 7 34
-8 30 -1 57 15 57 5 0 10 -15 10 -34z m80 -36 c0 -16 -4 -30 -10 -30 -5 0 -10
14 -10 30 0 17 5 30 10 30 6 0 10 -13 10 -30z"/>
<path d="M1560 3480 c0 -5 5 -10 10 -10 6 0 10 5 10 10 0 6 -4 10 -10 10 -5 0
-10 -4 -10 -10z"/>
<path d="M1480 3470 c0 -5 5 -10 10 -10 6 0 10 5 10 10 0 6 -4 10 -10 10 -5 0
-10 -4 -10 -10z"/>
<path d="M1016 3421 c-4 -5 -2 -12 3 -15 5 -4 12 -2 15 3 4 5 2 12 -3 15 -5 4
-12 2 -15 -3z"/>
<path d="M1090 3415 c0 -8 5 -15 10 -15 6 0 10 7 10 15 0 8 -4 15 -10 15 -5 0
-10 -7 -10 -15z"/>
<path d="M1497 3416 c-3 -8 -2 -18 3 -21 13 -8 24 15 12 27 -6 6 -11 4 -15 -6z"/>
<path d="M1052 3399 c2 -6 8 -10 13 -10 5 0 11 4 13 10 2 6 -4 11 -13 11 -9 0
-15 -5 -13 -11z"/>
<path d="M143 3385 c-11 -18 -4 -95 8 -95 5 0 9 15 10 33 0 17 2 42 5 55 4 25
-11 30 -23 7z"/>
<path d="M187 3393 c-11 -10 -8 -103 3 -103 6 0 10 25 10 55 0 56 -1 60 -13
48z"/>
<path d="M508 3378 c-9 -27 7 -83 24 -86 16 -3 16 -1 3 24 -9 18 -11 30 -4 34
11 7 2 40 -11 40 -4 0 -10 -6 -12 -12z"/>
<path d="M698 3380 c-2 -6 -13 -12 -26 -13 -19 -1 -22 -7 -21 -42 2 -34 3 -35
6 -10 4 27 18 44 35 45 4 0 8 -15 10 -32 2 -22 9 -34 20 -36 16 -3 16 -1 3 25
-13 24 -13 29 0 36 13 7 13 10 1 23 -17 17 -23 18 -28 4z"/>
<path d="M222 3358 c-7 -7 -12 -20 -12 -29 0 -36 57 -53 68 -19 4 13 3 13 -11
2 -16 -14 -37 -9 -37 9 0 6 5 7 10 4 6 -3 19 -3 30 0 16 5 18 10 10 26 -12 21
-40 25 -58 7z m43 -8 c3 -5 -3 -10 -15 -10 -12 0 -18 5 -15 10 3 6 10 10 15
10 5 0 12 -4 15 -10z"/>
<path d="M300 3350 c8 -14 8 -26 0 -40 -6 -12 -7 -20 -1 -20 5 0 11 6 14 13 3
9 7 9 20 -2 19 -15 23 -1 5 17 -9 9 -9 15 0 24 18 18 14 32 -5 17 -13 -11 -17
-11 -20 -1 -3 6 -9 12 -14 12 -6 0 -5 -8 1 -20z"/>
<path d="M436 3355 c-4 -10 3 -19 19 -27 13 -6 22 -15 19 -20 -3 -5 -12 -4
-20 3 -17 14 -32 3 -17 -12 15 -15 47 -7 51 13 2 9 -5 19 -18 23 -11 3 -18 11
-14 16 3 6 12 5 22 -3 13 -11 14 -11 10 2 -6 21 -44 25 -52 5z"/>
<path d="M562 3358 c-29 -29 -4 -70 42 -66 23 2 26 7 26 38 0 32 -3 36 -28 38
-15 1 -33 -3 -40 -10z m48 -27 c0 -23 -9 -31 -26 -24 -17 6 -18 40 -1 46 17 6
27 -1 27 -22z"/>
<path d="M360 3340 c0 -5 11 -10 24 -10 14 0 28 5 31 10 4 6 -7 10 -24 10 -17
0 -31 -4 -31 -10z"/>
<path d="M940 2830 l0 -220 975 0 975 0 0 220 0 220 -975 0 -975 0 0 -220z
m1930 -5 l0 -205 -960 0 -960 0 0 205 0 205 960 0 960 0 0 -205z"/>
<path d="M1950 2963 c0 -10 -9 -32 -19 -50 -20 -31 -20 -32 -1 -56 11 -13 16
-27 13 -31 -3 -3 -1 -6 5 -6 15 0 15 15 0 39 -8 14 -8 29 3 64 10 34 16 43 22
32 11 -21 57 -19 73 3 12 16 13 15 14 -5 0 -12 5 -34 12 -47 9 -21 8 -29 -5
-44 -10 -10 -15 -21 -12 -24 3 -3 0 -41 -7 -84 l-13 -79 -5 54 c-4 42 -9 55
-22 57 -15 2 -18 -6 -18 -47 0 -31 -4 -48 -10 -44 -5 3 -10 29 -10 56 0 28 -4
48 -9 45 -5 -4 -11 0 -14 6 -5 14 -27 -56 -27 -84 0 -41 106 -56 168 -24 17 9
39 27 50 41 24 31 37 94 23 108 -8 8 -11 0 -11 -29 0 -47 -11 -67 -38 -69 -15
-1 -22 9 -31 49 -10 44 -10 52 4 62 20 15 20 16 0 54 -8 16 -15 38 -15 50 0
23 -28 27 -36 5 -4 -8 -15 -15 -25 -15 -11 0 -22 7 -25 15 -8 21 -34 19 -34
-2z m129 -235 c1 -16 -4 -28 -11 -28 -9 0 -12 15 -9 52 3 43 6 48 12 28 4 -14
7 -37 8 -52z m-119 0 c0 -16 -4 -28 -10 -28 -5 0 -10 19 -10 43 0 31 3 38 10
27 5 -8 10 -27 10 -42z m53 0 c3 -21 2 -38 -4 -38 -5 0 -9 19 -9 42 0 49 5 47
13 -4z m107 3 c0 -5 -7 -12 -16 -15 -14 -5 -15 -4 -4 9 14 17 20 19 20 6z"/>
<path d="M2225 2971 c-3 -6 -5 -22 -3 -38 1 -15 -2 -38 -6 -51 -6 -17 -1 -29
23 -53 22 -22 31 -40 31 -64 0 -18 3 -46 6 -63 l6 -30 77 0 76 -1 33 48 c20
30 30 54 26 65 -5 12 -2 15 10 10 24 -9 33 26 11 42 -25 18 -31 18 -55 -6 -12
-12 -17 -26 -13 -37 3 -10 -4 -5 -17 11 -18 22 -24 44 -27 95 -2 36 -7 69 -11
73 -4 4 -31 4 -59 -1 -29 -4 -58 -4 -65 0 -17 11 -36 11 -43 0z m58 -33 c4
-10 8 -9 17 2 9 12 10 11 5 -7 -8 -29 6 -30 25 -2 21 29 47 42 47 23 0 -9 -6
-13 -16 -9 -13 4 -13 3 1 -8 20 -16 32 -58 23 -86 -9 -30 -69 -44 -110 -27
-18 8 -36 19 -40 26 -11 18 4 80 20 80 8 0 15 5 15 10 0 6 -7 10 -15 10 -8 0
-15 5 -15 10 0 14 36 -5 43 -22z m222 -119 c4 -6 0 -9 -11 -7 -16 2 -18 -3
-16 -29 2 -17 -1 -34 -6 -37 -10 -6 -14 62 -5 77 6 11 31 9 38 -4z m-86 -26
c31 -39 36 -70 16 -93 -10 -11 -28 -20 -40 -20 -30 0 -26 41 6 58 l24 13 -25
-3 c-14 -2 -30 -14 -38 -28 l-13 -25 4 28 c2 15 0 27 -4 27 -5 0 -9 -10 -9
-22 0 -13 -5 -30 -10 -38 -7 -11 -10 -5 -10 23 0 20 -4 37 -10 37 -5 0 -10
-16 -10 -37 0 -51 -6 -38 -14 30 l-7 57 33 0 c18 0 40 5 48 10 24 15 37 12 59
-17z"/>
<path d="M2260 2890 c0 -5 5 -10 10 -10 6 0 10 5 10 10 0 6 -4 10 -10 10 -5 0
-10 -4 -10 -10z"/>
<path d="M2340 2890 c0 -5 5 -10 10 -10 6 0 10 5 10 10 0 6 -4 10 -10 10 -5 0
-10 -4 -10 -10z"/>
<path d="M2297 2868 c-3 -9 3 -14 14 -14 11 0 18 5 16 10 -5 16 -24 18 -30 4z"/>
<path d="M2250 2860 c0 -5 5 -10 10 -10 6 0 10 5 10 10 0 6 -4 10 -10 10 -5 0
-10 -4 -10 -10z"/>
<path d="M2350 2860 c0 -5 5 -10 10 -10 6 0 10 5 10 10 0 6 -4 10 -10 10 -5 0
-10 -4 -10 -10z"/>
<path d="M2390 2780 c-13 -8 -12 -10 3 -10 9 0 17 5 17 10 0 12 -1 12 -20 0z"/>
<path d="M2506 2971 c-4 -7 -5 -15 -2 -18 9 -9 19 4 14 18 -4 11 -6 11 -12 0z"/>
<path d="M2615 2959 c3 -9 10 -42 15 -73 5 -31 12 -60 15 -66 3 -5 -3 -14 -14
-20 -17 -9 -19 -8 -15 5 4 8 -1 17 -10 21 -45 17 -63 -71 -18 -91 25 -11 29
-30 7 -39 -8 -3 -15 -10 -15 -16 0 -6 49 -10 135 -10 110 0 135 3 135 14 0 8
-6 16 -12 18 -8 3 -12 18 -10 40 3 28 -2 40 -20 53 l-23 16 24 -3 c20 -3 24 2
26 30 2 25 -1 32 -15 32 -15 0 -16 6 -9 43 4 23 8 47 9 52 0 7 -39 11 -105 11
-94 0 -104 -2 -100 -17z m43 -1 c-6 -18 -28 -21 -28 -4 0 9 7 16 16 16 9 0 14
-5 12 -12z m142 -4 c0 -10 -6 -14 -15 -10 -8 3 -15 1 -15 -3 0 -5 5 -11 12
-13 6 -2 9 -10 7 -17 -4 -11 -9 -10 -22 3 -15 15 -18 15 -23 2 -6 -16 -45 -18
-55 -3 -4 5 -15 4 -28 -2 -25 -14 -27 -5 -4 21 11 13 30 18 64 18 26 0 51 5
54 10 10 16 25 12 25 -6z m-91 -83 c15 -23 15 -24 -6 -13 -32 17 -41 14 -14
-4 18 -13 28 -14 47 -5 13 6 24 16 24 22 0 8 -4 9 -13 0 -8 -6 -17 -8 -20 -4
-11 10 30 34 47 27 21 -8 20 -27 -1 -47 -30 -26 -80 -26 -114 2 -20 16 -22 21
-10 35 18 22 40 17 60 -13z m111 -21 c0 -5 -7 -10 -16 -10 -8 0 -12 5 -9 10 3
6 10 10 16 10 5 0 9 -4 9 -10z m-104 -40 c18 0 36 5 39 10 3 6 11 10 17 10 7
0 6 -6 -2 -15 -7 -8 -9 -15 -4 -15 5 0 7 -27 6 -60 -3 -43 -8 -60 -18 -60 -10
0 -14 12 -14 41 0 36 -2 40 -22 37 -19 -2 -24 -10 -26 -40 -2 -25 -8 -38 -18
-38 -11 0 -14 14 -14 60 l0 60 25 -16 c21 -14 30 -15 52 -5 14 6 23 14 20 17
-3 3 -14 1 -24 -5 -15 -7 -25 -5 -44 12 -13 12 -20 19 -15 15 6 -5 25 -8 42
-8z m101 14 c-3 -3 -12 -4 -19 -1 -8 3 -5 6 6 6 11 1 17 -2 13 -5z m-217 -49
c0 -19 -2 -35 -5 -35 -10 0 -24 40 -19 54 11 28 24 17 24 -19z m50 -40 c0 -53
-1 -55 -27 -55 -24 1 -25 2 -11 11 14 8 15 15 8 35 -7 17 -6 32 0 45 19 34 30
20 30 -36z m164 -5 c-5 -32 -3 -39 12 -43 11 -3 4 -5 -15 -6 -33 -1 -34 -1
-27 37 3 20 6 45 6 56 0 15 3 16 15 6 11 -9 13 -23 9 -50z m-84 -21 c0 -16 -4
-29 -10 -29 -5 0 -10 16 -10 36 0 21 4 33 10 29 6 -3 10 -19 10 -36z"/>
<path d="M2430 2960 c0 -5 5 -10 10 -10 6 0 10 5 10 10 0 6 -4 10 -10 10 -5 0
-10 -4 -10 -10z"/>
<path d="M1960 2900 c0 -5 5 -10 10 -10 6 0 10 5 10 10 0 6 -4 10 -10 10 -5 0
-10 -4 -10 -10z"/>
<path d="M2040 2900 c0 -5 5 -10 10 -10 6 0 10 5 10 10 0 6 -4 10 -10 10 -5 0
-10 -4 -10 -10z"/>
<path d="M2436 2902 c-10 -16 9 -30 21 -17 10 10 9 14 -2 19 -8 3 -16 2 -19
-2z"/>
<path d="M1997 2894 c-8 -8 3 -34 14 -34 5 0 9 9 9 20 0 19 -11 26 -23 14z"/>
<path d="M2113 2830 c1 -38 5 -70 9 -70 15 0 20 54 9 87 -15 41 -7 54 15 27
14 -17 15 -18 10 -1 -3 10 -6 21 -6 23 0 2 -9 4 -19 4 -17 0 -19 -7 -18 -70z"/>
<path d="M2495 2890 c-3 -5 -1 -10 4 -10 6 0 11 5 11 10 0 6 -2 10 -4 10 -3 0
-8 -4 -11 -10z"/>
<path d="M143 2865 c-11 -19 -4 -85 8 -85 5 0 9 12 10 28 0 15 2 37 3 50 3 25
-9 29 -21 7z"/>
<path d="M180 2830 c0 -27 5 -50 10 -50 6 0 10 23 10 50 0 28 -4 50 -10 50 -5
0 -10 -22 -10 -50z"/>
<path d="M664 2864 c4 -11 1 -14 -13 -9 -21 6 -51 -18 -51 -40 0 -24 28 -43
54 -38 24 5 26 10 26 54 0 29 -4 49 -11 49 -6 0 -8 -7 -5 -16z m-4 -49 c0 -25
-23 -35 -35 -15 -10 16 2 40 20 40 9 0 15 -9 15 -25z"/>
<path d="M226 2844 c-18 -17 -19 -24 -10 -48 7 -18 49 -22 59 -6 4 7 -2 9 -19
4 -16 -4 -26 -2 -26 5 0 6 14 11 30 11 34 0 38 10 12 33 -23 21 -27 21 -46 1z
m44 -14 c0 -5 -9 -10 -20 -10 -11 0 -20 5 -20 10 0 6 9 10 20 10 11 0 20 -4
20 -10z"/>
<path d="M290 2852 c0 -4 6 -14 12 -20 10 -10 10 -17 0 -33 -16 -25 -10 -36 8
-14 11 14 14 13 26 -2 12 -17 13 -17 14 -1 0 9 -5 20 -10 23 -7 4 -7 12 0 25
15 28 12 38 -5 16 -13 -17 -15 -17 -21 -3 -6 17 -24 24 -24 9z"/>
<path d="M446 2844 c-9 -8 -16 -21 -16 -28 0 -21 35 -47 54 -40 23 9 20 27 -3
19 -11 -3 -22 -1 -26 5 -4 6 6 10 24 10 17 0 31 4 31 9 0 12 -29 41 -40 41 -5
0 -16 -7 -24 -16z m44 -14 c0 -5 -9 -10 -20 -10 -11 0 -20 5 -20 10 0 6 9 10
20 10 11 0 20 -4 20 -10z"/>
<path d="M520 2818 c0 -21 5 -38 10 -38 6 0 10 14 10 30 0 20 5 30 15 30 10 0
15 -10 15 -30 0 -16 5 -30 10 -30 14 0 12 57 -2 67 -7 4 -23 8 -35 8 -20 1
-23 -4 -23 -37z"/>
<path d="M360 2830 c0 -5 14 -10 30 -10 17 0 30 5 30 10 0 6 -13 10 -30 10
-16 0 -30 -4 -30 -10z"/>
<path d="M940 2290 l0 -220 975 0 975 0 0 220 0 220 -975 0 -975 0 0 -220z
m1930 0 l0 -210 -960 0 -960 0 0 210 0 210 960 0 960 0 0 -210z"/>
<path d="M1480 2405 c-7 -25 -16 -45 -21 -45 -16 0 -4 -39 14 -44 13 -3 17
-10 14 -20 -4 -9 -2 -16 3 -16 6 0 10 9 10 20 0 11 -4 20 -10 20 -5 0 -10 13
-10 29 0 17 5 33 10 36 6 3 10 16 10 28 1 20 2 20 11 5 13 -23 47 -23 71 -1
17 15 18 15 18 -5 0 -12 5 -32 11 -46 10 -20 9 -29 -2 -42 -8 -10 -14 -27 -14
-38 0 -12 -5 -48 -10 -81 l-9 -60 -13 55 -12 55 4 -52 c2 -29 0 -53 -5 -53 -5
0 -11 24 -13 53 l-3 52 -2 -52 c-3 -70 -22 -69 -22 1 0 38 -4 56 -15 59 -19 8
-24 -2 -31 -56 -6 -42 -5 -45 22 -59 54 -26 147 -5 190 43 26 29 32 139 9 163
-12 12 -21 14 -30 6 -15 -12 -45 27 -45 59 0 27 -20 38 -32 17 -11 -20 -54
-21 -62 -1 -10 27 -23 16 -36 -30z m204 -71 c18 -46 -2 -123 -38 -153 -19 -16
-21 -1 -3 18 6 8 7 11 1 8 -7 -4 -15 14 -23 46 -10 44 -10 53 3 63 9 6 13 14
9 17 -3 4 -1 7 5 7 15 0 26 -63 17 -97 -5 -22 -4 -25 6 -16 14 14 16 56 5 96
-9 29 7 39 18 11z m-68 -159 c-12 -32 -21 -13 -17 37 l4 53 10 -38 c5 -20 6
-44 3 -52z m-120 -12 c-13 -13 -22 16 -17 54 l5 38 9 -43 c6 -23 7 -46 3 -49z"/>
<path d="M2158 2445 c-8 -8 3 -109 13 -119 15 -17 10 -63 -7 -70 -11 -4 -15
-2 -11 7 10 26 -7 38 -31 21 -32 -22 -30 -71 3 -86 28 -13 32 -23 10 -32 -8
-3 -15 -12 -15 -21 0 -13 20 -15 135 -15 115 0 135 2 135 15 0 9 -6 18 -14 21
-10 4 -13 15 -9 38 4 27 1 36 -18 49 -12 9 -25 14 -28 11 -3 -3 -8 -31 -11
-61 -6 -68 -30 -86 -30 -24 0 37 -2 41 -25 41 -23 0 -25 -4 -25 -41 0 -65 -24
-43 -28 25 l-3 57 31 -16 c29 -15 32 -15 61 6 17 12 34 32 39 45 5 13 15 24
21 24 8 0 8 -4 -1 -15 -10 -12 -10 -15 1 -15 11 0 11 -2 -1 -10 -12 -8 -11
-10 6 -10 16 0 21 6 21 30 0 23 -5 30 -20 30 -17 0 -18 4 -12 38 14 69 13 77
-15 73 -41 -8 -123 -7 -146 2 -11 4 -23 5 -26 2z m42 -19 c0 -2 -7 -9 -15 -16
-12 -10 -15 -10 -15 4 0 9 7 16 15 16 8 0 15 -2 15 -4z m140 -12 c0 -14 -3
-14 -15 -4 -8 7 -15 14 -15 16 0 2 7 4 15 4 8 0 15 -7 15 -16z m-26 -13 c23
-26 17 -51 -6 -27 -20 20 -28 20 -28 2 0 -16 -40 -10 -52 7 -4 6 -13 3 -24 -8
-24 -24 -32 -1 -8 26 12 13 30 19 59 19 29 0 47 -6 59 -19z m-73 -57 c12 -15
11 -16 -11 -9 -25 8 -25 8 -6 -14 11 -11 24 -21 31 -21 7 0 20 10 31 21 19 22
19 22 -6 14 -22 -7 -23 -6 -11 9 17 21 50 21 58 0 8 -22 -34 -54 -72 -53 -36
0 -80 33 -71 54 7 20 40 19 57 -1z m48 -76 c-11 -10 -27 -18 -34 -18 -7 0 -23
8 -34 18 -22 17 -21 17 34 17 55 0 56 0 34 -17z m-149 -23 c0 -36 -13 -47 -24
-19 -5 14 9 54 19 54 3 0 5 -16 5 -35z m49 -47 c2 -50 1 -53 -24 -54 -21 -2
-24 1 -14 12 6 8 8 25 5 40 -6 24 7 54 24 54 3 0 8 -24 9 -52z m163 -3 c-2
-14 1 -32 8 -40 11 -13 9 -15 -11 -12 -26 4 -36 38 -24 86 6 24 8 25 19 8 7
-9 11 -28 8 -42z m-95 -37 c-2 -13 -4 -5 -4 17 -1 22 1 32 4 23 2 -10 2 -28 0
-40z"/>
<path d="M1760 2400 c0 -19 -3 -45 -6 -57 -5 -16 2 -30 24 -52 16 -17 29 -36
29 -43 -1 -7 2 -37 6 -65 7 -50 9 -53 37 -53 15 0 31 6 34 13 5 10 7 10 12 0
15 -32 104 -3 104 34 0 6 7 16 16 24 10 8 14 23 12 41 -4 21 -2 25 8 17 7 -6
18 -8 24 -4 18 11 11 35 -15 47 -21 9 -28 8 -45 -7 -14 -13 -18 -25 -14 -39 5
-16 0 -13 -20 11 -14 17 -25 39 -24 50 0 10 0 41 0 68 l-2 51 -90 0 -90 0 0
-36z m24 18 c-5 -8 -2 -9 10 -5 10 4 19 1 23 -9 5 -13 7 -13 14 -2 6 9 9 7 9
-9 0 -13 3 -23 6 -23 9 0 34 28 34 38 0 11 30 25 38 17 3 -3 0 -5 -7 -5 -7 0
-9 -5 -5 -12 5 -7 2 -9 -7 -4 -8 4 -6 1 3 -6 9 -8 19 -30 23 -50 6 -30 3 -38
-16 -52 -30 -21 -88 -21 -118 0 -19 14 -22 23 -18 51 4 19 14 42 24 50 10 8
12 12 6 8 -16 -8 -35 3 -28 16 4 5 8 9 11 9 3 0 2 -5 -2 -12z m196 -198 c17
-41 -1 -70 -43 -70 -22 0 -28 3 -18 9 11 7 11 9 0 13 -19 6 -1 28 24 28 15 0
18 3 10 11 -16 16 -53 -7 -54 -34 -1 -14 -4 -10 -9 13 -6 28 -8 30 -9 10 -1
-14 -6 -32 -11 -40 -7 -11 -10 -7 -10 18 0 17 -4 32 -10 32 -5 0 -11 -15 -11
-32 l-1 -33 -8 30 c-4 17 -8 44 -9 61 -1 28 1 30 27 27 15 -2 38 3 52 10 22
12 27 12 47 -6 12 -10 27 -32 33 -47z m70 61 c0 -5 -10 -7 -21 -4 -19 5 -21 3
-15 -25 4 -18 3 -33 -3 -37 -7 -4 -11 8 -11 34 0 37 2 41 25 41 14 0 25 -4 25
-9z"/>
<path d="M1796 2344 c-9 -23 -7 -34 5 -34 6 0 9 7 5 15 -3 8 -1 15 4 15 6 0
10 5 10 10 0 16 -17 12 -24 -6z"/>
<path d="M1880 2350 c0 -5 5 -10 10 -10 6 0 10 5 10 10 0 6 -4 10 -10 10 -5 0
-10 -4 -10 -10z"/>
<path d="M1835 2330 c-3 -5 3 -10 15 -10 12 0 18 5 15 10 -3 6 -10 10 -15 10
-5 0 -12 -4 -15 -10z"/>
<path d="M1890 2320 c0 -5 5 -10 10 -10 6 0 10 5 10 10 0 6 -4 10 -10 10 -5 0
-10 -4 -10 -10z"/>
<path d="M1907 2264 c-3 -5 1 -15 9 -22 16 -14 18 -5 5 17 -5 7 -11 9 -14 5z"/>
<path d="M2040 2431 c0 -6 5 -13 10 -16 6 -3 10 1 10 9 0 9 -4 16 -10 16 -5 0
-10 -4 -10 -9z"/>
<path d="M1970 2420 c0 -5 5 -10 10 -10 6 0 10 5 10 10 0 6 -4 10 -10 10 -5 0
-10 -4 -10 -10z"/>
<path d="M1500 2365 c0 -8 5 -15 10 -15 6 0 10 7 10 15 0 8 -4 15 -10 15 -5 0
-10 -7 -10 -15z"/>
<path d="M1576 2372 c-3 -6 -1 -14 5 -17 15 -10 25 3 12 16 -7 7 -13 7 -17 1z"/>
<path d="M1977 2366 c-3 -8 -2 -18 3 -21 13 -8 24 15 12 27 -6 6 -11 4 -15 -6z"/>
<path d="M1532 2349 c2 -6 8 -10 13 -10 5 0 11 4 13 10 2 6 -4 11 -13 11 -9 0
-15 -5 -13 -11z"/>
<path d="M392 2293 c2 -37 7 -49 21 -51 16 -3 17 -1 5 17 -10 16 -10 25 -2 39
9 13 8 20 -2 30 -22 20 -25 14 -22 -35z"/>
<path d="M138 2295 c-19 -43 32 -76 62 -40 14 17 0 21 -17 4 -15 -15 -33 -3
-33 23 0 18 4 20 31 14 27 -5 30 -4 19 9 -19 23 -49 18 -62 -10z"/>
<path d="M224 2306 c-3 -8 -4 -25 -2 -38 3 -26 43 -38 62 -18 8 10 5 11 -16 6
-15 -3 -30 -2 -33 4 -3 6 5 10 19 10 30 0 42 16 26 35 -16 19 -49 19 -56 1z
m46 -16 c0 -5 -9 -10 -20 -10 -11 0 -20 5 -20 10 0 6 9 10 20 10 11 0 20 -4
20 -10z"/>
<path d="M300 2279 c0 -21 5 -39 10 -39 6 0 10 14 10 31 0 41 32 36 42 -6 6
-26 6 -25 5 10 -2 38 -4 40 -34 42 -32 1 -33 0 -33 -38z"/>
<path d="M440 2300 c-14 -26 3 -60 31 -60 25 0 45 46 28 66 -17 20 -47 17 -59
-6z m50 -10 c0 -5 -9 -10 -20 -10 -11 0 -20 5 -20 10 0 6 9 10 20 10 11 0 20
-4 20 -10z m-8 -32 c-9 -9 -15 -9 -24 0 -9 9 -7 12 12 12 19 0 21 -3 12 -12z"/>
<path d="M520 2278 c0 -21 5 -38 10 -38 6 0 10 14 10 30 0 17 5 30 10 30 6 0
10 4 10 9 0 6 -9 9 -20 8 -16 -1 -20 -8 -20 -39z"/>
<path d="M1070 1665 l0 -205 900 0 900 0 0 205 0 205 -900 0 -900 0 0 -205z
m1788 110 c2 -65 1 -75 -14 -75 -14 0 -16 8 -11 53 l7 52 -96 0 -95 0 7 -55
c3 -30 10 -59 15 -64 14 -15 11 -43 -6 -50 -10 -4 -15 1 -15 14 0 11 -6 20
-13 20 -40 0 -51 -68 -14 -93 22 -14 22 -15 3 -36 l-19 -21 126 0 127 0 0 -25
0 -26 -890 3 -890 3 0 33 c0 29 3 33 18 27 60 -25 154 2 185 54 9 16 17 46 16
68 l-1 38 -9 -44 c-9 -48 -33 -91 -50 -91 -8 0 -7 5 1 15 7 8 8 15 3 15 -5 0
-14 19 -20 43 -10 33 -9 44 1 52 14 11 13 33 -6 88 -14 41 -20 44 -38 22 -7
-8 -18 -15 -25 -15 -7 0 -18 7 -25 15 -18 22 -30 18 -30 -9 0 -14 -4 -28 -10
-31 -6 -4 -10 14 -10 47 l0 53 887 -2 888 -3 3 -75z m-1703 -5 c12 0 26 5 31
10 7 7 15 -2 24 -29 10 -33 11 -43 0 -56 -7 -9 -10 -25 -6 -41 5 -17 3 -23 -4
-19 -6 4 -10 -12 -10 -44 0 -65 -19 -67 -22 -3 l-2 47 -5 -50 -5 -50 -6 50 -7
50 -1 -47 c-3 -63 -22 -62 -22 1 0 34 -4 51 -15 55 -9 3 -15 0 -15 -9 0 -8 5
-15 10 -15 6 0 10 -19 10 -42 0 -66 -17 -32 -25 47 -6 64 -5 68 9 51 12 -15
16 -16 16 -5 0 8 -5 20 -12 27 -9 9 -8 21 2 52 9 28 17 37 24 30 5 -5 19 -10
31 -10z m1530 10 c-3 -5 -10 -10 -16 -10 -5 0 -9 5 -9 10 0 6 7 10 16 10 8 0
12 -4 9 -10z m135 0 c0 -5 -8 -6 -17 -3 -16 6 -16 5 -4 -10 8 -10 11 -21 7
-25 -4 -4 -14 1 -21 11 -12 17 -13 17 -17 1 -4 -21 -45 -26 -53 -7 -4 12 -8
12 -21 -2 -23 -22 -31 -10 -10 14 12 13 35 21 65 24 25 2 52 4 59 5 6 1 12 -2
12 -8z m-89 -66 c12 -15 11 -16 -11 -10 l-25 7 23 -20 c19 -17 27 -18 43 -8
24 15 25 29 2 20 -16 -6 -16 -5 -4 10 17 22 40 22 48 1 7 -20 -32 -53 -63 -54
-12 0 -33 9 -48 21 -21 17 -24 24 -15 35 15 19 33 18 50 -2z m129 -96 c0 -37
-4 -68 -9 -68 -6 0 -7 15 -4 34 4 27 1 37 -18 51 -24 17 -24 17 -1 10 27 -8
31 19 5 34 -16 9 -15 10 5 8 20 -1 22 -6 22 -69z m-79 32 c-27 -23 -54 -26
-69 -7 -8 10 -2 12 28 9 20 -2 41 1 44 7 4 6 10 11 14 11 4 -1 -4 -10 -17 -20z
m-143 -30 c2 -31 -14 -41 -24 -15 -7 17 2 45 14 45 4 0 9 -13 10 -30z m133 5
c30 16 31 16 25 0 -3 -9 -6 -34 -6 -56 0 -28 -4 -39 -15 -39 -10 0 -15 11 -15
35 0 28 -4 35 -20 35 -16 0 -20 -7 -20 -35 0 -19 -4 -35 -9 -35 -11 0 -21 36
-21 78 0 32 0 32 24 17 22 -15 27 -15 57 0z m-91 -45 c0 -48 -1 -50 -27 -49
-18 1 -22 3 -10 6 14 4 16 11 11 38 -6 35 0 55 17 55 5 0 9 -22 9 -50z m152
-6 c-3 -16 1 -30 9 -35 10 -6 6 -9 -15 -9 -22 0 -27 4 -22 16 3 9 6 32 6 52 1
33 2 35 14 19 7 -9 11 -29 8 -43z m-1621 -27 c-8 -8 -11 -1 -11 24 0 46 14 60
18 19 2 -18 -1 -37 -7 -43z m1539 13 c0 -16 -2 -30 -4 -30 -2 0 -6 14 -8 30
-3 17 -1 30 4 30 4 0 8 -13 8 -30z"/>
<path d="M1836 1799 c-2 -8 -7 -36 -10 -62 -5 -42 -3 -51 19 -73 18 -17 26
-40 31 -83 l6 -60 76 2 c69 2 78 4 88 25 6 13 17 29 23 35 6 6 11 21 11 34 0
15 5 21 14 17 20 -8 30 14 15 32 -19 23 -62 14 -69 -14 l-5 -24 -19 21 c-14
15 -20 38 -21 83 -3 85 -2 81 -27 74 -31 -10 -89 -10 -110 -1 -11 4 -19 2 -22
-6z m47 -24 c12 -11 17 -12 20 -2 3 6 6 1 6 -12 l1 -24 23 26 c21 25 55 39 42
17 -4 -6 -12 -8 -18 -4 -7 3 -5 0 3 -8 8 -7 16 -18 16 -23 1 -6 4 -19 8 -30 3
-11 2 -26 -2 -33 -14 -21 -65 -30 -102 -18 -32 11 -35 14 -34 51 1 21 7 41 13
43 6 2 11 8 11 14 0 6 -7 8 -15 4 -8 -3 -15 -1 -15 4 0 15 27 12 43 -5z m212
-116 c4 -6 0 -9 -11 -7 -15 2 -18 -3 -16 -24 1 -14 -1 -29 -6 -32 -9 -6 -14
52 -6 66 7 11 32 10 39 -3z m-96 -12 c6 -8 7 -18 3 -22 -4 -5 -1 -5 5 -1 21
12 39 -39 25 -69 -15 -34 -59 -36 -57 -2 1 12 9 23 18 25 9 2 17 8 17 13 0 22
-50 -6 -51 -29 -1 -9 -5 -3 -9 13 -7 28 -8 28 -9 5 -1 -14 -6 -32 -11 -40 -7
-11 -10 -7 -10 18 0 17 -5 32 -10 32 -6 0 -8 -11 -4 -26 5 -19 4 -25 -5 -20
-6 4 -11 27 -11 52 0 41 2 44 28 44 15 0 34 5 42 10 20 13 26 12 39 -3z"/>
<path d="M1862 1705 c-1 -14 2 -25 7 -25 5 0 9 11 9 25 0 14 -3 25 -7 25 -4 0
-8 -11 -9 -25z"/>
<path d="M1940 1720 c0 -5 5 -10 10 -10 6 0 10 5 10 10 0 6 -4 10 -10 10 -5 0
-10 -4 -10 -10z"/>
<path d="M1900 1700 c0 -5 7 -10 15 -10 8 0 15 5 15 10 0 6 -7 10 -15 10 -8 0
-15 -4 -15 -10z"/>
<path d="M1950 1690 c0 -5 5 -10 10 -10 6 0 10 5 10 10 0 6 -4 10 -10 10 -5 0
-10 -4 -10 -10z"/>
<path d="M1972 1626 c7 -8 15 -12 17 -11 5 6 -10 25 -20 25 -5 0 -4 -6 3 -14z"/>
<path d="M2090 1796 c0 -9 5 -16 10 -16 6 0 10 4 10 9 0 6 -4 13 -10 16 -5 3
-10 -1 -10 -9z"/>
<path d="M2020 1791 c0 -6 5 -13 10 -16 6 -3 10 1 10 9 0 9 -4 16 -10 16 -5 0
-10 -4 -10 -9z"/>
<path d="M1258 1734 c-6 -33 -1 -134 6 -134 5 0 6 27 3 60 -5 54 4 80 16 48 2
-7 7 -10 11 -7 3 3 -3 14 -14 24 -11 10 -21 14 -22 9z"/>
<path d="M2025 1730 c-3 -5 3 -10 15 -10 12 0 18 5 15 10 -3 6 -10 10 -15 10
-5 0 -12 -4 -15 -10z"/>
<path d="M1110 1730 c0 -5 5 -10 10 -10 6 0 10 5 10 10 0 6 -4 10 -10 10 -5 0
-10 -4 -10 -10z"/>
<path d="M1180 1730 c0 -5 5 -10 10 -10 6 0 10 5 10 10 0 6 -4 10 -10 10 -5 0
-10 -4 -10 -10z"/>
<path d="M1147 1709 c4 -16 8 -17 14 -7 13 19 11 28 -5 28 -9 0 -12 -7 -9 -21z"/>
<path d="M521 1672 c-1 -41 0 -43 27 -40 21 2 27 8 27 28 0 18 -5 25 -20 25
-11 0 -23 7 -27 15 -4 8 -7 -4 -7 -28z m49 -11 c0 -14 -18 -23 -30 -16 -6 4
-8 11 -5 16 8 12 35 12 35 0z"/>
<path d="M656 1692 c-10 -16 7 -62 23 -61 10 0 11 2 4 6 -15 6 -18 43 -3 43 5
0 12 -11 16 -25 7 -27 24 -34 24 -10 0 8 -4 15 -10 15 -5 0 -10 6 -10 14 0 14
-37 29 -44 18z"/>
<path d="M149 1688 c-1 -2 -3 -15 -5 -30 -2 -22 1 -28 16 -28 25 0 36 18 16
26 -9 3 -16 10 -16 16 0 5 5 6 10 3 6 -3 10 -1 10 4 0 9 -28 16 -31 9z"/>
<path d="M200 1659 c0 -15 -3 -34 -6 -43 -3 -9 -1 -16 5 -16 6 0 11 7 11 15 0
8 8 15 18 15 10 0 23 5 30 12 9 9 12 9 12 0 0 -7 13 -12 28 -12 26 0 28 3 24
28 -4 30 -26 38 -49 19 -9 -6 -17 -6 -25 0 -25 20 -48 11 -48 -18z m110 -5 c0
-8 -7 -14 -15 -14 -15 0 -21 21 -9 33 10 9 24 -2 24 -19z m-70 1 c0 -8 -7 -15
-15 -15 -8 0 -15 7 -15 15 0 8 7 15 15 15 8 0 15 -7 15 -15z"/>
<path d="M341 1676 c-6 -7 -9 -21 -5 -30 7 -18 54 -22 54 -5 0 6 -9 8 -20 4
-14 -5 -20 -2 -20 9 0 9 9 16 21 16 11 0 17 5 14 10 -9 14 -31 12 -44 -4z"/>
<path d="M407 1684 c-4 -4 -7 -18 -7 -31 0 -18 5 -23 26 -23 22 0 25 4 22 27
-3 27 -26 41 -41 27z m28 -14 c3 -5 -1 -10 -10 -10 -9 0 -13 5 -10 10 3 6 8
10 10 10 2 0 7 -4 10 -10z m2 -26 c-3 -3 -12 -4 -19 -1 -8 3 -5 6 6 6 11 1 17
-2 13 -5z"/>
<path d="M597 1684 c-11 -12 -8 -41 6 -52 18 -16 39 1 35 29 -3 23 -27 37 -41
23z m28 -14 c3 -5 -1 -10 -10 -10 -9 0 -13 5 -10 10 3 6 8 10 10 10 2 0 7 -4
10 -10z m2 -26 c-3 -3 -12 -4 -19 -1 -8 3 -5 6 6 6 11 1 17 -2 13 -5z"/>
<path d="M720 1676 c0 -8 5 -18 10 -21 6 -3 10 3 10 14 0 12 -4 21 -10 21 -5
0 -10 -6 -10 -14z"/>
<path d="M752 1665 c-14 -31 -15 -35 -3 -35 9 0 25 49 18 56 -2 2 -9 -7 -15
-21z"/>
<path d="M782 1673 c-14 -27 -4 -43 26 -42 l27 1 -25 8 c-25 8 -25 8 -2 9 17
1 22 6 20 18 -5 24 -35 28 -46 6z m33 -3 c3 -5 -1 -10 -10 -10 -9 0 -13 5 -10
10 3 6 8 10 10 10 2 0 7 -4 10 -10z"/>
<path d="M844 1675 c-9 -23 3 -45 25 -45 22 0 34 33 18 49 -16 16 -37 14 -43
-4z m31 -5 c3 -5 -1 -10 -10 -10 -9 0 -13 5 -10 10 3 6 8 10 10 10 2 0 7 -4
10 -10z m2 -26 c-3 -3 -12 -4 -19 -1 -8 3 -5 6 6 6 11 1 17 -2 13 -5z"/>
<path d="M908 1661 c-3 -17 -1 -31 3 -31 4 0 9 9 11 20 4 25 23 22 22 -2 0
-10 3 -18 8 -18 5 0 8 12 6 28 -2 19 -9 28 -24 30 -17 2 -22 -3 -26 -27z"/>
<path d="M464 1669 c-3 -5 7 -9 22 -9 15 0 24 3 20 7 -11 11 -35 12 -42 2z"/>
<path d="M1070 1125 l0 -205 900 0 900 0 0 205 0 205 -900 0 -900 0 0 -205z
m1790 5 l0 -190 -890 0 -890 0 0 190 0 190 890 0 890 0 0 -190z"/>
<path d="M1237 1263 c-3 -5 -8 -23 -12 -40 -3 -18 -10 -33 -15 -33 -4 0 -6 -9
-3 -20 3 -11 9 -20 14 -20 5 0 9 -7 9 -15 0 -8 5 -15 10 -15 6 0 10 6 10 14 0
8 -4 18 -10 21 -14 9 -12 38 4 70 8 15 17 22 21 16 10 -17 52 -13 60 7 6 14 9
12 15 -13 4 -16 11 -37 14 -46 4 -9 1 -23 -6 -30 -7 -8 -14 -34 -16 -59 -1
-25 -6 -58 -11 -75 -9 -28 -9 -27 -10 18 -1 35 -5 47 -16 47 -10 0 -15 -10
-15 -32 0 -18 -5 -40 -10 -48 -7 -11 -10 -2 -10 31 0 29 -6 51 -15 59 -20 17
-22 14 -30 -42 -7 -44 -6 -47 21 -61 57 -28 146 -4 180 48 20 31 31 105 15
105 -6 0 -11 -17 -11 -39 0 -29 -7 -48 -25 -68 l-26 -28 21 35 c22 38 26 81
10 111 -12 21 -1 26 18 7 8 -8 12 -8 12 -1 0 17 -26 34 -43 27 -17 -6 -37 23
-37 55 0 24 -28 29 -36 6 -4 -8 -12 -15 -19 -15 -7 0 -18 7 -25 15 -14 16 -26
19 -33 8z m163 -145 c0 -23 -19 -72 -26 -65 -16 15 -23 88 -12 107 12 19 13
19 25 -3 7 -12 12 -30 13 -39z m-157 -70 c3 -21 2 -38 -4 -38 -5 0 -9 19 -9
42 0 49 5 47 13 -4z m113 -23 c-11 -30 -21 -14 -17 28 4 41 4 41 13 14 6 -15
7 -34 4 -42z m-60 -23 c-11 -10 -14 3 -7 38 l6 35 3 -33 c2 -19 1 -36 -2 -40z"/>
<path d="M1835 1258 c-2 -7 -6 -34 -10 -60 -5 -42 -3 -50 19 -71 19 -18 26
-37 32 -85 6 -59 8 -62 33 -62 15 0 32 5 39 12 9 9 12 9 12 0 0 -7 14 -12 33
-12 28 0 38 7 60 41 15 22 27 50 27 60 0 11 4 18 8 15 4 -2 14 0 22 5 13 8 11
13 -8 29 -29 24 -62 12 -62 -22 l0 -22 -22 23 c-17 19 -21 37 -22 86 -1 35 -3
66 -7 69 -3 3 -29 2 -57 -3 -29 -4 -55 -4 -58 0 -8 13 -34 11 -39 -3z m55 -33
c0 -5 5 -3 10 5 8 12 10 10 11 -10 l1 -25 8 25 c4 14 9 18 9 10 1 -12 4 -12
12 3 5 9 17 17 25 17 8 0 12 -5 9 -10 -4 -6 -12 -8 -18 -4 -7 3 -5 0 4 -8 9
-7 17 -17 18 -23 1 -5 4 -18 7 -28 3 -11 -2 -27 -12 -38 -22 -24 -95 -26 -118
-3 -20 20 -21 58 -1 78 19 19 19 26 -1 26 -8 0 -12 4 -9 10 7 11 45 -9 45 -25z
m205 -106 c4 -6 0 -9 -11 -7 -15 2 -18 -3 -16 -24 1 -14 -1 -29 -6 -32 -9 -6
-14 52 -6 66 7 11 32 10 39 -3z m-96 -12 c6 -8 7 -17 3 -21 -4 -4 -1 -6 7 -4
8 2 19 -9 25 -25 11 -30 -1 -50 -40 -61 -17 -5 -20 -2 -19 16 1 13 9 24 18 26
9 2 17 8 17 13 0 20 -35 4 -47 -21 l-13 -25 -1 30 -1 30 -8 -33 c-11 -45 -20
-52 -20 -14 0 18 -4 32 -9 32 -4 0 -6 -12 -3 -26 3 -19 1 -25 -7 -20 -6 4 -11
26 -11 50 0 45 -6 41 91 65 4 0 12 -5 18 -12z"/>
<path d="M1862 1165 c-1 -14 2 -25 7 -25 5 0 9 11 9 25 0 14 -3 25 -7 25 -4 0
-8 -11 -9 -25z"/>
<path d="M1900 1166 c0 -9 7 -16 16 -16 9 0 14 5 12 12 -6 18 -28 21 -28 4z"/>
<path d="M1950 1156 c0 -9 5 -16 10 -16 6 0 10 4 10 9 0 6 -4 13 -10 16 -5 3
-10 -1 -10 -9z"/>
<path d="M1972 1086 c7 -8 15 -12 17 -11 5 6 -10 25 -20 25 -5 0 -4 -6 3 -14z"/>
<path d="M2090 1256 c0 -9 5 -16 10 -16 6 0 10 4 10 9 0 6 -4 13 -10 16 -5 3
-10 -1 -10 -9z"/>
<path d="M2536 1210 c4 -30 11 -63 16 -73 9 -18 3 -37 -13 -37 -5 0 -9 7 -9
15 0 23 -28 18 -45 -9 -13 -19 -14 -29 -5 -45 6 -12 17 -21 25 -21 20 0 19
-26 0 -34 -8 -3 -15 -10 -15 -16 0 -6 47 -10 130 -10 72 0 130 4 130 9 0 5 -7
14 -15 21 -9 7 -12 22 -9 40 5 21 1 31 -18 45 -22 17 -22 17 -1 12 18 -4 21 0
21 29 0 20 -5 32 -11 31 -13 -2 -15 33 -4 73 l6 26 -95 -1 -95 0 7 -55z m32
38 c6 -6 29 -11 52 -11 23 0 46 5 52 11 16 16 28 15 28 -3 0 -10 -6 -12 -17
-8 -16 6 -16 5 -4 -10 17 -21 7 -35 -13 -18 -10 8 -16 9 -21 1 -9 -14 -42 -13
-48 3 -3 9 -8 9 -21 -2 -21 -17 -33 -7 -16 14 11 13 10 14 -4 9 -11 -4 -16 -1
-16 10 0 19 11 21 28 4z m43 -74 c12 -15 11 -16 -11 -9 -22 7 -23 6 -11 -9 17
-21 45 -21 62 1 12 15 12 16 -4 10 -13 -5 -17 -3 -15 5 6 17 37 23 51 9 7 -7
6 -16 -6 -28 -9 -11 -13 -24 -8 -33 13 -26 1 -130 -15 -130 -9 0 -14 12 -14
35 0 28 -4 35 -20 35 -16 0 -20 -7 -20 -35 0 -24 -5 -35 -15 -35 -12 0 -15 13
-15 55 0 52 1 55 19 45 28 -14 57 -12 71 5 15 18 7 19 -19 3 -15 -9 -24 -8
-46 6 -15 10 -24 20 -21 23 3 4 -1 14 -10 24 -9 10 -13 23 -9 28 9 16 41 13
56 -5z m-98 -111 c-3 -7 -9 -10 -14 -7 -11 6 -12 38 -2 48 9 9 22 -25 16 -41z
m45 -23 c3 -49 2 -50 -25 -50 -24 1 -25 2 -10 11 12 7 15 17 11 35 -3 13 -4
31 0 39 11 29 21 14 24 -35z m152 0 c0 -21 6 -41 13 -43 6 -3 -1 -6 -16 -6
-25 -1 -27 2 -23 27 2 15 5 37 5 50 2 39 21 13 21 -28z m-80 -20 c0 -16 -4
-30 -10 -30 -5 0 -10 14 -10 30 0 17 5 30 10 30 6 0 10 -13 10 -30z"/>
<path d="M2590 1120 c20 -13 57 -13 65 0 4 6 -11 10 -37 10 -31 0 -39 -3 -28
-10z"/>
<path d="M2020 1250 c0 -5 5 -10 10 -10 6 0 10 5 10 10 0 6 -4 10 -10 10 -5 0
-10 -4 -10 -10z"/>
<path d="M1250 1196 c0 -9 5 -16 10 -16 6 0 10 4 10 9 0 6 -4 13 -10 16 -5 3
-10 -1 -10 -9z"/>
<path d="M1320 1196 c0 -9 5 -16 10 -16 6 0 10 4 10 9 0 6 -4 13 -10 16 -5 3
-10 -1 -10 -9z"/>
<path d="M2036 1201 c-4 -7 -5 -15 -2 -18 9 -9 19 4 14 18 -4 11 -6 11 -12 0z"/>
<path d="M1280 1175 c0 -8 5 -15 10 -15 6 0 10 7 10 15 0 8 -4 15 -10 15 -5 0
-10 -7 -10 -15z"/>
<path d="M870 1160 c0 -5 -6 -10 -14 -10 -20 0 -37 -25 -30 -44 4 -10 18 -16
35 -16 27 0 29 3 29 40 0 22 -4 40 -10 40 -5 0 -10 -4 -10 -10z m0 -46 c0 -8
-7 -14 -15 -14 -15 0 -21 21 -9 33 10 9 24 -2 24 -19z"/>
<path d="M145 1139 c-4 -6 1 -17 11 -25 17 -14 17 -15 2 -10 -10 3 -18 1 -18
-4 0 -12 33 -13 44 -3 4 4 -3 16 -16 26 -16 13 -18 17 -5 13 9 -3 17 -1 17 4
0 13 -27 13 -35 -1z"/>
<path d="M198 1109 c-2 -22 0 -43 4 -45 4 -3 8 2 8 10 0 9 8 16 19 16 11 0 22
6 25 13 5 10 7 10 12 0 3 -7 18 -13 33 -13 25 0 27 3 23 30 -3 23 -9 30 -27
30 -13 0 -26 -6 -29 -12 -5 -10 -7 -10 -12 0 -3 6 -16 12 -29 12 -20 0 -23 -6
-27 -41z m42 11 c0 -11 -7 -20 -15 -20 -15 0 -21 21 -8 33 12 13 23 7 23 -13z
m68 -3 c2 -10 -3 -17 -12 -17 -10 0 -16 9 -16 21 0 24 23 21 28 -4z"/>
<path d="M336 1135 c-13 -34 31 -64 50 -34 4 8 0 9 -15 4 -17 -5 -21 -2 -21
15 0 17 4 20 21 15 15 -5 19 -4 15 4 -10 16 -43 13 -50 -4z"/>
<path d="M404 1136 c-9 -24 3 -46 26 -46 17 0 21 5 18 27 -3 31 -34 44 -44 19z
m36 -6 c0 -5 -6 -10 -12 -10 -9 0 -8 -4 2 -10 13 -8 12 -10 -2 -10 -11 0 -18
8 -18 20 0 11 7 20 15 20 8 0 15 -4 15 -10z"/>
<path d="M524 1135 c-10 -25 4 -45 31 -45 21 0 25 5 25 30 0 25 -4 30 -25 30
-14 0 -28 -7 -31 -15z m36 -15 c0 -11 -4 -20 -9 -20 -14 0 -23 18 -16 30 10
17 25 11 25 -10z"/>
<path d="M590 1120 c0 -16 4 -30 10 -30 5 0 7 7 4 15 -4 8 -1 22 6 30 10 12 9
15 -4 15 -11 0 -16 -9 -16 -30z"/>
<path d="M631 1132 c-12 -22 3 -42 30 -42 22 0 33 28 18 46 -16 19 -36 17 -48
-4z m39 -18 c0 -8 -7 -14 -15 -14 -15 0 -21 21 -9 33 10 9 24 -2 24 -19z"/>
<path d="M694 1134 c3 -9 6 -22 6 -30 0 -8 10 -14 25 -14 22 0 25 4 24 33 -1
29 -2 29 -8 8 -9 -34 -31 -39 -31 -7 0 14 -5 26 -11 26 -6 0 -8 -7 -5 -16z"/>
<path d="M760 1120 c0 -16 5 -30 11 -30 5 0 9 10 7 22 -2 11 3 23 10 25 7 3
12 -5 12 -21 0 -14 5 -26 11 -26 6 0 8 7 5 16 -3 9 -6 22 -6 30 0 8 -10 14
-25 14 -21 0 -25 -5 -25 -30z"/>
<path d="M460 1130 c0 -5 12 -10 26 -10 14 0 23 4 19 10 -3 6 -15 10 -26 10
-10 0 -19 -4 -19 -10z"/>
<path d="M1086 882 c-15 -18 -15 -20 6 -38 19 -17 21 -17 15 -1 -6 15 0 17 43
17 43 0 49 -2 43 -17 -6 -16 -4 -16 15 1 21 18 21 20 6 38 -21 22 -28 23 -20
3 4 -12 -4 -15 -44 -15 -40 0 -48 3 -44 15 8 20 1 19 -20 -3z"/>
<path d="M2726 882 c-15 -18 -15 -20 6 -38 19 -17 21 -17 15 -1 -6 15 0 17 43
17 43 0 49 -2 43 -17 -6 -16 -4 -16 15 1 21 18 21 20 6 38 -21 22 -28 23 -20
3 4 -12 -4 -15 -44 -15 -40 0 -48 3 -44 15 8 20 1 19 -20 -3z"/>
<path d="M1450 875 c-10 -12 -10 -18 0 -30 7 -8 17 -15 22 -15 6 0 5 7 -2 15
-10 12 -10 18 0 30 7 8 8 15 2 15 -5 0 -15 -7 -22 -15z"/>
<path d="M1815 860 c0 -26 2 -27 15 -15 13 13 13 17 0 30 -13 13 -15 11 -15
-15z"/>
<path d="M2100 875 c-10 -12 -10 -18 0 -30 7 -8 17 -15 22 -15 6 0 5 7 -2 15
-10 12 -10 18 0 30 7 8 8 15 2 15 -5 0 -15 -7 -22 -15z"/>
<path d="M2464 861 c1 -26 3 -28 16 -16 12 13 12 17 -1 31 -15 14 -16 13 -15
-15z"/>
<path d="M1475 860 c-4 -7 53 -10 164 -10 107 0 171 4 171 10 0 6 -61 10 -164
10 -99 0 -167 -4 -171 -10z"/>
<path d="M2125 860 c-4 -7 53 -10 164 -10 107 0 171 4 171 10 0 6 -61 10 -164
10 -99 0 -167 -4 -171 -10z"/>
<path d="M1070 790 c0 -30 14 -41 23 -17 4 9 8 8 16 -3 8 -12 10 -7 10 20 -1
19 -3 27 -6 18 -5 -22 -23 -24 -23 -3 0 8 -4 15 -10 15 -5 0 -10 -13 -10 -30z"/>
<path d="M1192 790 c0 -19 2 -27 5 -17 2 9 2 25 0 35 -3 9 -5 1 -5 -18z"/>
<path d="M1210 785 c0 -19 2 -35 4 -35 2 0 6 16 8 35 2 19 0 35 -4 35 -4 0 -8
-16 -8 -35z"/>
<path d="M1530 791 c0 -29 15 -49 28 -36 3 3 0 10 -8 15 -11 7 -12 10 -2 10 7
0 10 5 6 11 -3 6 0 15 7 20 10 6 8 9 -8 9 -19 0 -23 -6 -23 -29z"/>
<path d="M1742 790 c0 -19 2 -27 5 -17 2 9 2 25 0 35 -3 9 -5 1 -5 -18z"/>
<path d="M2182 788 c2 -17 9 -33 16 -36 9 -3 11 4 8 24 -3 17 0 31 7 36 8 5 4
8 -11 8 -20 0 -23 -4 -20 -32z"/>
<path d="M2392 790 c0 -19 2 -27 5 -17 2 9 2 25 0 35 -3 9 -5 1 -5 -18z"/>
<path d="M2710 790 c0 -30 14 -41 23 -17 4 9 8 8 16 -3 8 -12 10 -7 10 20 -1
19 -3 27 -6 18 -5 -22 -23 -24 -23 -3 0 8 -4 15 -10 15 -5 0 -10 -13 -10 -30z"/>
<path d="M2832 790 c0 -19 2 -27 5 -17 2 9 2 25 0 35 -3 9 -5 1 -5 -18z"/>
<path d="M2851 783 c1 -34 2 -35 9 -13 11 36 11 50 0 50 -5 0 -10 -17 -9 -37z"/>
<path d="M1143 803 c-7 -3 -13 -13 -13 -23 0 -19 17 -30 38 -23 6 3 12 13 12
23 0 19 -17 30 -37 23z m22 -23 c-3 -5 -10 -10 -16 -10 -5 0 -9 5 -9 10 0 6 7
10 16 10 8 0 12 -4 9 -10z"/>
<path d="M1580 795 c-10 -12 -10 -18 0 -30 7 -8 16 -12 21 -9 5 3 9 -2 9 -11
0 -9 4 -14 9 -11 11 7 -1 68 -15 73 -6 2 -17 -3 -24 -12z m30 -15 c0 -5 -4
-10 -10 -10 -5 0 -10 5 -10 10 0 6 5 10 10 10 6 0 10 -4 10 -10z"/>
<path d="M1695 800 c-3 -5 -12 -7 -20 -3 -9 3 -15 -1 -15 -11 0 -22 -17 -20
-23 2 -4 13 -5 12 -6 -5 -1 -25 16 -34 41 -22 10 6 19 5 23 -1 9 -14 35 0 35
20 0 20 -26 35 -35 20z m25 -20 c0 -5 -7 -10 -15 -10 -8 0 -15 5 -15 10 0 6 7
10 15 10 8 0 15 -4 15 -10z"/>
<path d="M2229 793 c-13 -14 6 -47 21 -38 5 3 11 -3 13 -12 3 -10 5 0 6 23 1
43 -17 55 -40 27z m31 -13 c0 -5 -4 -10 -10 -10 -5 0 -10 5 -10 10 0 6 5 10
10 10 6 0 10 -4 10 -10z"/>
<path d="M2336 794 c-8 -21 11 -45 30 -37 20 7 14 47 -7 51 -9 2 -19 -5 -23
-14z m34 -14 c0 -5 -4 -10 -9 -10 -6 0 -13 5 -16 10 -3 6 1 10 9 10 9 0 16 -4
16 -10z"/>
<path d="M2783 803 c-15 -5 -17 -39 -4 -47 16 -10 41 5 41 24 0 19 -17 30 -37
23z m27 -24 c0 -5 -7 -9 -15 -9 -15 0 -20 12 -9 23 8 8 24 -1 24 -14z"/>
<path d="M2281 783 c0 -13 4 -23 9 -23 6 0 13 0 17 -1 4 0 10 9 15 20 4 12 3
21 -2 21 -6 0 -10 -7 -10 -15 0 -21 -18 -19 -23 3 -4 13 -5 11 -6 -5z"/>
<path d="M1070 445 l0 -205 903 2 902 3 3 203 2 202 -905 0 -905 0 0 -205z
m1790 5 l0 -190 -890 0 -890 0 0 190 0 190 890 0 890 0 0 -190z"/>
<path d="M1450 585 c-15 -18 -42 -19 -57 -4 -14 14 -33 3 -33 -20 0 -9 -6 -26
-14 -36 -12 -16 -11 -24 3 -52 9 -18 19 -33 24 -33 11 0 9 28 -3 35 -14 9 -12
45 4 74 8 15 16 20 20 12 9 -14 56 -15 56 -1 0 6 5 10 12 10 6 0 9 -3 5 -6 -3
-4 1 -20 9 -36 12 -24 13 -32 3 -45 -7 -8 -14 -39 -16 -68 -2 -30 -7 -64 -12
-77 -8 -19 -10 -15 -10 25 -1 40 -4 47 -21 47 -17 0 -20 -7 -20 -47 0 -59 -8
-53 -11 9 -2 30 -8 49 -17 53 -20 7 -21 6 -28 -48 -6 -44 -5 -47 22 -58 61
-25 149 -2 181 47 19 30 30 104 14 104 -6 0 -11 -17 -11 -39 0 -36 -35 -100
-47 -87 -3 3 4 17 16 32 23 29 27 74 11 105 -12 21 -1 26 18 7 8 -8 12 -8 12
-1 0 17 -26 34 -43 27 -17 -6 -37 23 -37 55 0 26 -15 34 -30 16z m74 -170 c-9
-48 -20 -49 -33 -4 -10 34 -10 47 0 67 l14 24 12 -28 c7 -16 10 -42 7 -59z
m-38 -71 c-12 -30 -21 -12 -17 34 l4 47 9 -34 c5 -18 7 -40 4 -47z m-113 -14
c-10 -10 -19 23 -14 53 l5 32 7 -40 c4 -22 5 -42 2 -45z m53 -8 c-11 -10 -14
3 -7 38 l6 35 3 -33 c2 -19 1 -36 -2 -40z"/>
<path d="M2415 590 c-7 -12 4 -90 17 -117 12 -23 5 -53 -12 -53 -5 0 -10 7
-10 15 0 18 -21 20 -38 3 -19 -19 -14 -56 8 -70 11 -7 20 -18 20 -25 0 -7 4
-13 10 -13 5 0 8 16 7 36 -1 22 3 39 11 41 8 3 12 -9 12 -40 0 -36 -4 -46 -20
-50 -11 -3 -20 -1 -20 4 0 5 -4 9 -10 9 -5 0 -10 -7 -10 -15 0 -13 21 -15 125
-15 100 0 125 3 125 14 0 8 -7 16 -15 20 -8 3 -12 12 -9 21 8 20 -4 65 -17 65
-6 0 -7 -5 -3 -12 4 -6 8 -29 8 -50 1 -27 -3 -38 -14 -38 -21 0 -12 122 10
127 13 4 13 3 0 -6 -13 -9 -12 -11 5 -11 15 0 20 7 21 30 1 20 -4 30 -13 30
-11 0 -14 12 -11 53 2 42 0 51 -12 48 -45 -11 -102 -12 -129 -3 -17 6 -33 7
-36 2z m35 -19 c0 -17 -18 -21 -24 -6 -3 9 0 15 9 15 8 0 15 -4 15 -9z m130
-7 c0 -8 -4 -12 -10 -9 -5 3 -10 10 -10 16 0 5 5 9 10 9 6 0 10 -7 10 -16z
m-20 -19 c18 -20 20 -25 8 -25 -9 0 -19 6 -22 13 -5 10 -7 10 -12 0 -3 -7 -16
-13 -29 -13 -13 0 -25 6 -28 13 -4 10 -7 10 -18 0 -25 -24 -33 -13 -9 12 15
16 34 25 55 25 21 0 40 -9 55 -25z m-39 -44 c19 19 49 16 49 -4 0 -22 -34 -47
-63 -47 -32 0 -67 24 -67 46 0 21 24 23 44 4 17 -17 19 -17 37 1z m79 -31 c0
-5 -4 -10 -10 -10 -5 0 -10 5 -10 10 0 6 5 10 10 10 6 0 10 -4 10 -10z m-72
-32 c28 10 29 9 27 -19 -1 -16 -2 -45 -3 -64 -1 -23 -7 -35 -16 -35 -9 0 -12
7 -9 20 3 11 2 28 -3 37 -6 14 -9 7 -14 -27 l-7 -45 -1 43 c-2 48 -22 49 -22
1 0 -16 -4 -29 -9 -29 -12 0 -22 48 -19 92 2 33 4 35 24 26 15 -7 32 -7 52 0z
m-128 -34 c0 -31 -2 -35 -15 -24 -18 15 -19 32 -3 48 17 17 18 16 18 -24z"/>
<path d="M2476 475 c25 -19 39 -19 55 2 13 15 12 15 -7 5 -12 -6 -26 -7 -35
-1 -23 14 -34 10 -13 -6z"/>
<path d="M2469 417 c17 -21 55 -22 71 -1 12 13 10 14 -12 4 -20 -9 -31 -9 -49
1 -22 11 -23 11 -10 -4z"/>
<path d="M1833 573 c-3 -7 -3 -18 0 -25 2 -7 0 -26 -4 -41 -7 -24 -4 -33 18
-55 20 -20 27 -39 30 -77 2 -27 6 -56 8 -62 6 -16 47 -17 63 -1 9 9 12 9 12 0
0 -7 14 -12 34 -12 28 0 38 7 62 43 15 23 27 50 27 60 -1 11 5 17 18 17 28 0
23 28 -6 42 -37 17 -58 -7 -57 -64 1 -62 -6 -78 -33 -78 -32 0 -38 25 -12 44
21 15 21 16 2 14 -11 -2 -26 -14 -33 -28 l-13 -25 4 28 c2 15 0 27 -4 27 -5 0
-9 -13 -9 -30 0 -41 -20 -38 -21 3 l-2 32 -6 -35 c-6 -33 -7 -34 -14 -10 -4
14 -7 39 -7 55 0 28 3 30 40 31 31 2 41 -2 46 -18 3 -11 8 -17 11 -15 2 3 0
15 -7 26 -14 26 5 29 32 4 10 -9 18 -11 18 -5 0 6 -8 17 -17 24 -14 10 -18 28
-18 77 l0 65 -79 0 c-53 1 -80 -3 -83 -11z m58 -26 c0 -7 4 -3 9 8 7 17 9 16
10 -10 l2 -30 8 30 c5 21 8 24 10 10 1 -11 4 -15 7 -7 2 7 14 17 26 24 20 10
21 10 8 -6 -11 -13 -12 -19 -3 -25 6 -4 14 -21 18 -38 5 -25 2 -34 -17 -47
-13 -9 -37 -16 -54 -16 -17 0 -41 7 -54 16 -18 13 -22 22 -17 47 3 16 14 36
24 43 16 12 15 13 -6 14 -13 0 -20 4 -17 10 8 13 45 -6 46 -23z m209 -106 c0
-5 -8 -8 -17 -7 -14 1 -17 -5 -15 -26 2 -14 -1 -29 -6 -32 -7 -4 -10 60 -3 72
4 7 41 1 41 -7z"/>
<path d="M1870 510 c0 -5 5 -10 11 -10 5 0 7 5 4 10 -3 6 -8 10 -11 10 -2 0
-4 -4 -4 -10z"/>
<path d="M1945 510 c-3 -5 -1 -10 4 -10 6 0 11 5 11 10 0 6 -2 10 -4 10 -3 0
-8 -4 -11 -10z"/>
<path d="M1900 488 c0 -8 7 -15 15 -15 18 0 15 19 -3 25 -7 2 -12 -3 -12 -10z"/>
<path d="M1860 481 c0 -6 5 -13 10 -16 6 -3 10 1 10 9 0 9 -4 16 -10 16 -5 0
-10 -4 -10 -9z"/>
<path d="M1950 475 c0 -8 5 -15 10 -15 6 0 10 7 10 15 0 8 -4 15 -10 15 -5 0
-10 -7 -10 -15z"/>
<path d="M2090 580 c0 -5 5 -10 10 -10 6 0 10 5 10 10 0 6 -4 10 -10 10 -5 0
-10 -4 -10 -10z"/>
<path d="M2020 570 c0 -5 5 -10 10 -10 6 0 10 5 10 10 0 6 -4 10 -10 10 -5 0
-10 -4 -10 -10z"/>
<path d="M1376 521 c-4 -5 -2 -12 3 -15 5 -4 12 -2 15 3 4 5 2 12 -3 15 -5 4
-12 2 -15 -3z"/>
<path d="M1450 514 c0 -8 5 -12 10 -9 6 4 8 11 5 16 -9 14 -15 11 -15 -7z"/>
<path d="M2030 510 c0 -5 7 -10 15 -10 8 0 15 5 15 10 0 6 -7 10 -15 10 -8 0
-15 -4 -15 -10z"/>
<path d="M1410 495 c0 -8 4 -15 9 -15 5 0 11 7 15 15 3 9 0 15 -9 15 -8 0 -15
-7 -15 -15z"/>
<path d="M770 450 c0 -44 20 -56 21 -12 l0 27 10 -24 c5 -13 7 -32 4 -42 -10
-30 12 -22 23 9 5 15 13 35 17 45 4 9 3 17 -3 17 -6 0 -12 -10 -15 -22 -3 -22
-4 -22 -12 -3 -10 21 -30 45 -39 45 -3 0 -6 -18 -6 -40z"/>
<path d="M140 455 c0 -8 7 -15 15 -15 8 0 15 -5 15 -11 0 -6 -7 -8 -17 -4 -14
5 -15 3 -6 -6 6 -6 19 -9 28 -5 14 5 15 9 5 21 -9 11 -9 15 -1 15 7 0 9 5 6
10 -10 16 -45 12 -45 -5z"/>
<path d="M198 429 c-2 -22 0 -43 4 -45 4 -3 8 2 8 10 0 9 8 16 19 16 11 0 21
6 24 13 4 10 7 10 18 0 25 -24 49 -16 49 17 0 25 -4 30 -24 30 -13 0 -27 -6
-30 -12 -5 -10 -7 -10 -12 0 -3 6 -16 12 -29 12 -20 0 -23 -6 -27 -41z m42 11
c0 -11 -4 -20 -9 -20 -14 0 -23 18 -16 30 10 17 25 11 25 -10z m68 3 c-5 -25
-28 -28 -28 -4 0 12 6 21 16 21 9 0 14 -7 12 -17z"/>
<path d="M336 455 c-13 -34 31 -64 50 -34 4 8 0 9 -15 4 -17 -5 -21 -2 -21 15
0 17 4 20 21 15 15 -5 19 -4 15 4 -10 16 -43 13 -50 -4z"/>
<path d="M404 455 c-9 -23 3 -45 26 -45 16 0 20 7 20 30 0 23 -4 30 -20 30
-11 0 -23 -7 -26 -15z m33 -1 c-3 -3 -12 -4 -19 -1 -8 3 -5 6 6 6 11 1 17 -2
13 -5z m3 -24 c0 -5 -7 -10 -15 -10 -8 0 -15 5 -15 10 0 6 7 10 15 10 8 0 15
-4 15 -10z"/>
<path d="M524 455 c-9 -23 3 -45 26 -45 16 0 20 7 20 30 0 23 -4 30 -20 30
-11 0 -23 -7 -26 -15z m33 -1 c-3 -3 -12 -4 -19 -1 -8 3 -5 6 6 6 11 1 17 -2
13 -5z m3 -24 c0 -5 -4 -10 -9 -10 -6 0 -13 5 -16 10 -3 6 1 10 9 10 9 0 16
-4 16 -10z"/>
<path d="M585 448 c8 -26 22 -44 29 -37 2 2 7 18 10 34 6 29 6 29 -5 5 l-11
-25 -9 23 c-4 12 -11 22 -14 22 -4 0 -3 -10 0 -22z"/>
<path d="M644 455 c-9 -23 3 -45 26 -45 11 0 20 4 20 10 0 5 -7 7 -15 4 -8 -4
-15 -1 -15 5 0 6 9 11 20 11 13 0 18 5 14 15 -4 8 -15 15 -25 15 -11 0 -22 -7
-25 -15z"/>
<path d="M711 438 c2 -31 2 -31 6 -5 5 33 24 31 35 -4 6 -22 7 -21 5 6 -2 23
-7 31 -24 33 -20 3 -23 -1 -22 -30z"/>
<path d="M460 450 c0 -5 11 -10 25 -10 14 0 25 5 25 10 0 6 -11 10 -25 10 -14
0 -25 -4 -25 -10z"/>
<path d="M1076 192 c-15 -18 -15 -20 6 -38 19 -17 21 -17 15 -1 -6 16 3 17
109 17 112 0 114 0 104 -20 -6 -12 -9 -35 -7 -53 l4 -32 1 34 c1 19 11 44 22
56 l20 22 -22 19 c-19 17 -21 17 -15 2 6 -17 -3 -18 -108 -18 -98 0 -114 2
-109 15 8 20 1 19 -20 -3z"/>
<path d="M1580 200 c0 -5 5 -10 10 -10 6 0 10 5 10 10 0 6 -4 10 -10 10 -5 0
-10 -4 -10 -10z"/>
<path d="M1809 196 c13 -16 6 -17 -113 -15 -70 0 -129 -1 -132 -3 -2 -3 5 -13
16 -23 11 -10 20 -13 20 -7 0 6 -6 13 -12 15 -7 3 42 6 110 6 l122 1 -13 -22
c-9 -15 -11 -34 -7 -53 l8 -30 1 34 c0 19 9 43 18 53 18 21 10 47 -18 57 -12
4 -12 2 0 -13z"/>
<path d="M2110 189 c-12 -21 1 -49 22 -49 6 0 5 7 -2 15 -11 13 2 15 110 15
108 0 121 -2 110 -15 -16 -19 -23 -72 -10 -80 6 -4 10 8 10 27 0 19 6 43 14
53 10 15 11 23 2 37 -6 10 -15 18 -20 18 -4 0 -3 -7 4 -15 11 -13 -2 -15 -110
-15 -108 0 -121 2 -110 15 8 10 9 15 2 15 -6 0 -16 -9 -22 -21z"/>
<path d="M2612 198 c-17 -17 -15 -33 5 -49 15 -12 16 -12 10 4 -6 16 3 17 109
17 112 0 114 0 104 -20 -6 -12 -9 -35 -7 -53 l4 -32 1 34 c1 19 11 44 22 56
l20 22 -22 19 c-19 17 -21 17 -15 2 6 -17 -3 -18 -108 -18 -98 0 -114 2 -109
15 7 18 2 19 -14 3z"/>
<path d="M1103 133 c-17 -6 -17 -63 0 -63 15 0 17 40 2 41 -5 0 -1 4 9 8 21 8
10 21 -11 14z"/>
<path d="M1603 133 c-7 -3 -13 -18 -13 -34 0 -21 5 -29 18 -29 14 0 15 2 2 10
-13 9 -13 11 0 20 13 9 13 10 0 10 -13 0 -13 1 0 10 16 10 11 20 -7 13z"/>
<path d="M2130 100 c0 -22 5 -30 18 -30 14 0 15 2 2 10 -13 9 -13 11 0 20 13
9 13 10 0 10 -13 0 -13 1 0 10 13 8 12 10 -2 10 -13 0 -18 -8 -18 -30z"/>
<path d="M2620 100 c0 -24 4 -30 23 -30 15 0 18 3 9 9 -14 9 -13 32 3 43 6 4
0 8 -12 8 -19 0 -23 -6 -23 -30z"/>
<path d="M1193 100 c3 -33 37 -41 38 -8 l0 23 9 -22 c13 -32 50 -31 50 2 0 21
-4 24 -35 23 -26 -1 -35 -6 -38 -22 -3 -20 -4 -20 -15 4 l-12 25 3 -25z m87
-5 c0 -8 -4 -15 -9 -15 -13 0 -22 16 -14 24 11 11 23 6 23 -9z"/>
<path d="M1694 95 c1 -11 9 -21 19 -23 13 -3 17 3 16 25 -1 23 -2 24 -6 6 -5
-27 -20 -30 -26 -5 -3 13 -4 12 -3 -3z"/>
<path d="M1742 98 c2 -15 10 -23 23 -23 13 0 21 8 23 23 3 18 -1 22 -23 22
-22 0 -26 -4 -23 -22z m29 -1 c-1 -12 -15 -9 -19 4 -3 6 1 10 8 8 6 -3 11 -8
11 -12z"/>
<path d="M2282 98 c5 -34 38 -37 38 -4 0 20 -5 26 -21 26 -15 0 -20 -5 -17
-22z m28 -3 c0 -8 -4 -15 -10 -15 -5 0 -10 7 -10 15 0 8 5 15 10 15 6 0 10 -7
10 -15z"/>
<path d="M2723 100 c2 -22 7 -25 50 -27 44 -2 47 0 47 22 0 21 -4 24 -35 23
-25 -1 -34 -5 -31 -14 9 -24 -14 -26 -24 -2 l-10 23 3 -25z m87 -5 c0 -8 -4
-15 -9 -15 -13 0 -22 16 -14 24 11 11 23 6 23 -9z"/>
</g>
</svg>
